# MagicaVoxel @ Ephtracy

# group
o 

# material
mtllib direct.mtl
usemtl palette

# normals
vn -1 0 0
vn 1 0 0
vn 0 0 1
vn 0 0 -1
vn 0 -1 0
vn 0 1 0

# texcoords
vt 0.0605469 0.5
vt 0.185547 0.5
vt 0.248047 0.5

# verts
v -1.6 0 0.2
v -1.6 0 0.1
v -1.6 0 -0.1
v -1.6 0 -0.2
v -1.6 0.1 0.2
v -1.6 0.1 0.1
v -1.6 0.1 -0.1
v -1.6 0.1 -0.2
v -1.3 0 0.3
v -1.3 0 0.2
v -1.3 0 -0.2
v -1.3 0 -0.3
v -1.3 0.1 0.3
v -1.3 0.1 0.2
v -1.3 0.1 -0.2
v -1.3 0.1 -0.3
v -1.3 0.2 0.3
v -1.3 0.2 0.2
v -1.3 0.2 -0.2
v -1.3 0.2 -0.3
v -1.3 0.3 0.3
v -1.3 0.3 0.2
v -1.3 0.3 -0.2
v -1.3 0.3 -0.3
v -0.8 0 0.3
v -0.8 0 0.2
v -0.8 0 -0.2
v -0.8 0 -0.3
v -0.8 0.1 0.3
v -0.8 0.1 0.2
v -0.8 0.1 -0.2
v -0.8 0.1 -0.3
v -0.8 0.2 0.3
v -0.8 0.2 0.2
v -0.8 0.2 -0.2
v -0.8 0.2 -0.3
v -0.8 0.3 0.3
v -0.8 0.3 0.2
v -0.8 0.3 -0.2
v -0.8 0.3 -0.3
v -0.3 0 0.3
v -0.3 0 0.2
v -0.3 0 -0.2
v -0.3 0 -0.3
v -0.3 0.1 0.3
v -0.3 0.1 0.2
v -0.3 0.1 -0.2
v -0.3 0.1 -0.3
v -0.3 0.2 0.3
v -0.3 0.2 0.2
v -0.3 0.2 -0.2
v -0.3 0.2 -0.3
v -0.3 0.3 0.3
v -0.3 0.3 0.2
v -0.3 0.3 -0.2
v -0.3 0.3 -0.3
v 0.2 0 0.3
v 0.2 0 0.2
v 0.2 0 -0.2
v 0.2 0 -0.3
v 0.2 0.1 0.3
v 0.2 0.1 0.2
v 0.2 0.1 -0.2
v 0.2 0.1 -0.3
v 0.2 0.2 0.3
v 0.2 0.2 0.2
v 0.2 0.2 -0.2
v 0.2 0.2 -0.3
v 0.2 0.3 0.3
v 0.2 0.3 0.2
v 0.2 0.3 -0.2
v 0.2 0.3 -0.3
v 0.7 0 0.3
v 0.7 0 0.2
v 0.7 0 -0.2
v 0.7 0 -0.3
v 0.7 0.1 0.3
v 0.7 0.1 0.2
v 0.7 0.1 -0.2
v 0.7 0.1 -0.3
v 0.7 0.2 0.3
v 0.7 0.2 0.2
v 0.7 0.2 -0.2
v 0.7 0.2 -0.3
v 0.7 0.3 0.3
v 0.7 0.3 0.2
v 0.7 0.3 -0.2
v 0.7 0.3 -0.3
v 1.2 0 0.3
v 1.2 0 0.2
v 1.2 0 -0.2
v 1.2 0 -0.3
v 1.2 0.1 0.3
v 1.2 0.1 0.2
v 1.2 0.1 -0.2
v 1.2 0.1 -0.3
v 1.2 0.2 0.3
v 1.2 0.2 0.2
v 1.2 0.2 -0.2
v 1.2 0.2 -0.3
v 1.2 0.3 0.3
v 1.2 0.3 0.2
v 1.2 0.3 -0.2
v 1.2 0.3 -0.3
v -1.2 0 0.3
v -1.2 0 0.2
v -1.2 0 -0.2
v -1.2 0 -0.3
v -1.2 0.1 0.3
v -1.2 0.1 0.2
v -1.2 0.1 -0.2
v -1.2 0.1 -0.3
v -1.2 0.2 0.3
v -1.2 0.2 0.2
v -1.2 0.2 -0.2
v -1.2 0.2 -0.3
v -1.2 0.3 0.3
v -1.2 0.3 0.2
v -1.2 0.3 -0.2
v -1.2 0.3 -0.3
v -0.7 0 0.3
v -0.7 0 0.2
v -0.7 0 -0.2
v -0.7 0 -0.3
v -0.7 0.1 0.3
v -0.7 0.1 0.2
v -0.7 0.1 -0.2
v -0.7 0.1 -0.3
v -0.7 0.2 0.3
v -0.7 0.2 0.2
v -0.7 0.2 -0.2
v -0.7 0.2 -0.3
v -0.7 0.3 0.3
v -0.7 0.3 0.2
v -0.7 0.3 -0.2
v -0.7 0.3 -0.3
v -0.2 0 0.3
v -0.2 0 0.2
v -0.2 0 -0.2
v -0.2 0 -0.3
v -0.2 0.1 0.3
v -0.2 0.1 0.2
v -0.2 0.1 -0.2
v -0.2 0.1 -0.3
v -0.2 0.2 0.3
v -0.2 0.2 0.2
v -0.2 0.2 -0.2
v -0.2 0.2 -0.3
v -0.2 0.3 0.3
v -0.2 0.3 0.2
v -0.2 0.3 -0.2
v -0.2 0.3 -0.3
v 0.3 0 0.3
v 0.3 0 0.2
v 0.3 0 -0.2
v 0.3 0 -0.3
v 0.3 0.1 0.3
v 0.3 0.1 0.2
v 0.3 0.1 -0.2
v 0.3 0.1 -0.3
v 0.3 0.2 0.3
v 0.3 0.2 0.2
v 0.3 0.2 -0.2
v 0.3 0.2 -0.3
v 0.3 0.3 0.3
v 0.3 0.3 0.2
v 0.3 0.3 -0.2
v 0.3 0.3 -0.3
v 0.8 0 0.3
v 0.8 0 0.2
v 0.8 0 -0.2
v 0.8 0 -0.3
v 0.8 0.1 0.3
v 0.8 0.1 0.2
v 0.8 0.1 -0.2
v 0.8 0.1 -0.3
v 0.8 0.2 0.3
v 0.8 0.2 0.2
v 0.8 0.2 -0.2
v 0.8 0.2 -0.3
v 0.8 0.3 0.3
v 0.8 0.3 0.2
v 0.8 0.3 -0.2
v 0.8 0.3 -0.3
v 1.3 0 0.3
v 1.3 0 0.2
v 1.3 0 -0.2
v 1.3 0 -0.3
v 1.3 0.1 0.3
v 1.3 0.1 0.2
v 1.3 0.1 -0.2
v 1.3 0.1 -0.3
v 1.3 0.2 0.3
v 1.3 0.2 0.2
v 1.3 0.2 -0.2
v 1.3 0.2 -0.3
v 1.3 0.3 0.3
v 1.3 0.3 0.2
v 1.3 0.3 -0.2
v 1.3 0.3 -0.3
v 1.6 0 0.2
v 1.6 0 0.1
v 1.6 0 -0.1
v 1.6 0 -0.2
v 1.6 0.1 0.2
v 1.6 0.1 0.1
v 1.6 0.1 -0.1
v 1.6 0.1 -0.2
v -1.3 0 0.3
v -1.3 0.1 0.3
v -1.3 0.2 0.3
v -1.3 0.3 0.3
v -1.2 0 0.3
v -1.2 0.1 0.3
v -1.2 0.2 0.3
v -1.2 0.3 0.3
v -0.8 0 0.3
v -0.8 0.1 0.3
v -0.8 0.2 0.3
v -0.8 0.3 0.3
v -0.7 0 0.3
v -0.7 0.1 0.3
v -0.7 0.2 0.3
v -0.7 0.3 0.3
v -0.3 0 0.3
v -0.3 0.1 0.3
v -0.3 0.2 0.3
v -0.3 0.3 0.3
v -0.2 0 0.3
v -0.2 0.1 0.3
v -0.2 0.2 0.3
v -0.2 0.3 0.3
v 0.2 0 0.3
v 0.2 0.1 0.3
v 0.2 0.2 0.3
v 0.2 0.3 0.3
v 0.3 0 0.3
v 0.3 0.1 0.3
v 0.3 0.2 0.3
v 0.3 0.3 0.3
v 0.7 0 0.3
v 0.7 0.1 0.3
v 0.7 0.2 0.3
v 0.7 0.3 0.3
v 0.8 0 0.3
v 0.8 0.1 0.3
v 0.8 0.2 0.3
v 0.8 0.3 0.3
v 1.2 0 0.3
v 1.2 0.1 0.3
v 1.2 0.2 0.3
v 1.2 0.3 0.3
v 1.3 0 0.3
v 1.3 0.1 0.3
v 1.3 0.2 0.3
v 1.3 0.3 0.3
v -1.6 0 0.2
v -1.6 0.1 0.2
v -1.3 0 0.2
v -1.3 0.1 0.2
v -1.2 0 0.2
v -1.2 0.1 0.2
v -0.8 0 0.2
v -0.8 0.1 0.2
v -0.7 0 0.2
v -0.7 0.1 0.2
v -0.3 0 0.2
v -0.3 0.1 0.2
v -0.2 0 0.2
v -0.2 0.1 0.2
v 0.2 0 0.2
v 0.2 0.1 0.2
v 0.3 0 0.2
v 0.3 0.1 0.2
v 0.7 0 0.2
v 0.7 0.1 0.2
v 0.8 0 0.2
v 0.8 0.1 0.2
v 1.2 0 0.2
v 1.2 0.1 0.2
v 1.3 0 0.2
v 1.3 0.1 0.2
v 1.6 0 0.2
v 1.6 0.1 0.2
v -1.3 0.1 -0.2
v -1.3 0.2 -0.2
v -1.3 0.3 -0.2
v -1.2 0.1 -0.2
v -1.2 0.2 -0.2
v -1.2 0.3 -0.2
v -0.8 0.1 -0.2
v -0.8 0.2 -0.2
v -0.8 0.3 -0.2
v -0.7 0.1 -0.2
v -0.7 0.2 -0.2
v -0.7 0.3 -0.2
v -0.3 0.1 -0.2
v -0.3 0.2 -0.2
v -0.3 0.3 -0.2
v -0.2 0.1 -0.2
v -0.2 0.2 -0.2
v -0.2 0.3 -0.2
v 0.2 0.1 -0.2
v 0.2 0.2 -0.2
v 0.2 0.3 -0.2
v 0.3 0.1 -0.2
v 0.3 0.2 -0.2
v 0.3 0.3 -0.2
v 0.7 0.1 -0.2
v 0.7 0.2 -0.2
v 0.7 0.3 -0.2
v 0.8 0.1 -0.2
v 0.8 0.2 -0.2
v 0.8 0.3 -0.2
v 1.2 0.1 -0.2
v 1.2 0.2 -0.2
v 1.2 0.3 -0.2
v 1.3 0.1 -0.2
v 1.3 0.2 -0.2
v 1.3 0.3 -0.2
v -1.3 0.1 0.2
v -1.3 0.2 0.2
v -1.3 0.3 0.2
v -1.2 0.1 0.2
v -1.2 0.2 0.2
v -1.2 0.3 0.2
v -0.8 0.1 0.2
v -0.8 0.2 0.2
v -0.8 0.3 0.2
v -0.7 0.1 0.2
v -0.7 0.2 0.2
v -0.7 0.3 0.2
v -0.3 0.1 0.2
v -0.3 0.2 0.2
v -0.3 0.3 0.2
v -0.2 0.1 0.2
v -0.2 0.2 0.2
v -0.2 0.3 0.2
v 0.2 0.1 0.2
v 0.2 0.2 0.2
v 0.2 0.3 0.2
v 0.3 0.1 0.2
v 0.3 0.2 0.2
v 0.3 0.3 0.2
v 0.7 0.1 0.2
v 0.7 0.2 0.2
v 0.7 0.3 0.2
v 0.8 0.1 0.2
v 0.8 0.2 0.2
v 0.8 0.3 0.2
v 1.2 0.1 0.2
v 1.2 0.2 0.2
v 1.2 0.3 0.2
v 1.3 0.1 0.2
v 1.3 0.2 0.2
v 1.3 0.3 0.2
v -1.6 0 -0.2
v -1.6 0.1 -0.2
v -1.3 0 -0.2
v -1.3 0.1 -0.2
v -1.2 0 -0.2
v -1.2 0.1 -0.2
v -0.8 0 -0.2
v -0.8 0.1 -0.2
v -0.7 0 -0.2
v -0.7 0.1 -0.2
v -0.3 0 -0.2
v -0.3 0.1 -0.2
v -0.2 0 -0.2
v -0.2 0.1 -0.2
v 0.2 0 -0.2
v 0.2 0.1 -0.2
v 0.3 0 -0.2
v 0.3 0.1 -0.2
v 0.7 0 -0.2
v 0.7 0.1 -0.2
v 0.8 0 -0.2
v 0.8 0.1 -0.2
v 1.2 0 -0.2
v 1.2 0.1 -0.2
v 1.3 0 -0.2
v 1.3 0.1 -0.2
v 1.6 0 -0.2
v 1.6 0.1 -0.2
v -1.3 0 -0.3
v -1.3 0.1 -0.3
v -1.3 0.2 -0.3
v -1.3 0.3 -0.3
v -1.2 0 -0.3
v -1.2 0.1 -0.3
v -1.2 0.2 -0.3
v -1.2 0.3 -0.3
v -0.8 0 -0.3
v -0.8 0.1 -0.3
v -0.8 0.2 -0.3
v -0.8 0.3 -0.3
v -0.7 0 -0.3
v -0.7 0.1 -0.3
v -0.7 0.2 -0.3
v -0.7 0.3 -0.3
v -0.3 0 -0.3
v -0.3 0.1 -0.3
v -0.3 0.2 -0.3
v -0.3 0.3 -0.3
v -0.2 0 -0.3
v -0.2 0.1 -0.3
v -0.2 0.2 -0.3
v -0.2 0.3 -0.3
v 0.2 0 -0.3
v 0.2 0.1 -0.3
v 0.2 0.2 -0.3
v 0.2 0.3 -0.3
v 0.3 0 -0.3
v 0.3 0.1 -0.3
v 0.3 0.2 -0.3
v 0.3 0.3 -0.3
v 0.7 0 -0.3
v 0.7 0.1 -0.3
v 0.7 0.2 -0.3
v 0.7 0.3 -0.3
v 0.8 0 -0.3
v 0.8 0.1 -0.3
v 0.8 0.2 -0.3
v 0.8 0.3 -0.3
v 1.2 0 -0.3
v 1.2 0.1 -0.3
v 1.2 0.2 -0.3
v 1.2 0.3 -0.3
v 1.3 0 -0.3
v 1.3 0.1 -0.3
v 1.3 0.2 -0.3
v 1.3 0.3 -0.3
v -1.3 0 0.3
v -1.2 0 0.3
v -0.8 0 0.3
v -0.7 0 0.3
v -0.3 0 0.3
v -0.2 0 0.3
v 0.2 0 0.3
v 0.3 0 0.3
v 0.7 0 0.3
v 0.8 0 0.3
v 1.2 0 0.3
v 1.3 0 0.3
v -1.6 0 0.2
v -1.3 0 0.2
v -1.2 0 0.2
v -0.8 0 0.2
v -0.7 0 0.2
v -0.3 0 0.2
v -0.2 0 0.2
v 0.2 0 0.2
v 0.3 0 0.2
v 0.7 0 0.2
v 0.8 0 0.2
v 1.2 0 0.2
v 1.3 0 0.2
v 1.6 0 0.2
v -1.6 0 0.1
v 1.6 0 0.1
v -1.6 0 -0.1
v 1.6 0 -0.1
v -1.6 0 -0.2
v -1.3 0 -0.2
v -1.2 0 -0.2
v -0.8 0 -0.2
v -0.7 0 -0.2
v -0.3 0 -0.2
v -0.2 0 -0.2
v 0.2 0 -0.2
v 0.3 0 -0.2
v 0.7 0 -0.2
v 0.8 0 -0.2
v 1.2 0 -0.2
v 1.3 0 -0.2
v 1.6 0 -0.2
v -1.3 0 -0.3
v -1.2 0 -0.3
v -0.8 0 -0.3
v -0.7 0 -0.3
v -0.3 0 -0.3
v -0.2 0 -0.3
v 0.2 0 -0.3
v 0.3 0 -0.3
v 0.7 0 -0.3
v 0.8 0 -0.3
v 1.2 0 -0.3
v 1.3 0 -0.3
v -1.6 0.1 0.2
v -1.3 0.1 0.2
v -1.2 0.1 0.2
v -0.8 0.1 0.2
v -0.7 0.1 0.2
v -0.3 0.1 0.2
v -0.2 0.1 0.2
v 0.2 0.1 0.2
v 0.3 0.1 0.2
v 0.7 0.1 0.2
v 0.8 0.1 0.2
v 1.2 0.1 0.2
v 1.3 0.1 0.2
v 1.6 0.1 0.2
v -1.6 0.1 0.1
v 1.6 0.1 0.1
v -1.6 0.1 -0.1
v 1.6 0.1 -0.1
v -1.6 0.1 -0.2
v -1.3 0.1 -0.2
v -1.2 0.1 -0.2
v -0.8 0.1 -0.2
v -0.7 0.1 -0.2
v -0.3 0.1 -0.2
v -0.2 0.1 -0.2
v 0.2 0.1 -0.2
v 0.3 0.1 -0.2
v 0.7 0.1 -0.2
v 0.8 0.1 -0.2
v 1.2 0.1 -0.2
v 1.3 0.1 -0.2
v 1.6 0.1 -0.2
v -1.3 0.3 0.3
v -1.2 0.3 0.3
v -0.8 0.3 0.3
v -0.7 0.3 0.3
v -0.3 0.3 0.3
v -0.2 0.3 0.3
v 0.2 0.3 0.3
v 0.3 0.3 0.3
v 0.7 0.3 0.3
v 0.8 0.3 0.3
v 1.2 0.3 0.3
v 1.3 0.3 0.3
v -1.3 0.3 0.2
v -1.2 0.3 0.2
v -0.8 0.3 0.2
v -0.7 0.3 0.2
v -0.3 0.3 0.2
v -0.2 0.3 0.2
v 0.2 0.3 0.2
v 0.3 0.3 0.2
v 0.7 0.3 0.2
v 0.8 0.3 0.2
v 1.2 0.3 0.2
v 1.3 0.3 0.2
v -1.3 0.3 -0.2
v -1.2 0.3 -0.2
v -0.8 0.3 -0.2
v -0.7 0.3 -0.2
v -0.3 0.3 -0.2
v -0.2 0.3 -0.2
v 0.2 0.3 -0.2
v 0.3 0.3 -0.2
v 0.7 0.3 -0.2
v 0.8 0.3 -0.2
v 1.2 0.3 -0.2
v 1.3 0.3 -0.2
v -1.3 0.3 -0.3
v -1.2 0.3 -0.3
v -0.8 0.3 -0.3
v -0.7 0.3 -0.3
v -0.3 0.3 -0.3
v -0.2 0.3 -0.3
v 0.2 0.3 -0.3
v 0.3 0.3 -0.3
v 0.7 0.3 -0.3
v 0.8 0.3 -0.3
v 1.2 0.3 -0.3
v 1.3 0.3 -0.3

# faces
f 5/2/1 2/2/1 1/2/1
f 6/3/1 3/3/1 2/3/1
f 6/2/1 2/2/1 5/2/1
f 7/2/1 4/2/1 3/2/1
f 7/3/1 3/3/1 6/3/1
f 8/2/1 4/2/1 7/2/1
f 13/2/1 10/2/1 9/2/1
f 14/2/1 10/2/1 13/2/1
f 15/2/1 12/2/1 11/2/1
f 16/2/1 12/2/1 15/2/1
f 17/1/1 14/1/1 13/1/1
f 18/1/1 14/1/1 17/1/1
f 19/1/1 16/1/1 15/1/1
f 20/1/1 16/1/1 19/1/1
f 21/2/1 18/2/1 17/2/1
f 22/2/1 18/2/1 21/2/1
f 23/2/1 20/2/1 19/2/1
f 24/2/1 20/2/1 23/2/1
f 29/2/1 26/2/1 25/2/1
f 30/2/1 26/2/1 29/2/1
f 31/2/1 28/2/1 27/2/1
f 32/2/1 28/2/1 31/2/1
f 33/1/1 30/1/1 29/1/1
f 34/1/1 30/1/1 33/1/1
f 35/1/1 32/1/1 31/1/1
f 36/1/1 32/1/1 35/1/1
f 37/2/1 34/2/1 33/2/1
f 38/2/1 34/2/1 37/2/1
f 39/2/1 36/2/1 35/2/1
f 40/2/1 36/2/1 39/2/1
f 45/2/1 42/2/1 41/2/1
f 46/2/1 42/2/1 45/2/1
f 47/2/1 44/2/1 43/2/1
f 48/2/1 44/2/1 47/2/1
f 49/1/1 46/1/1 45/1/1
f 50/1/1 46/1/1 49/1/1
f 51/1/1 48/1/1 47/1/1
f 52/1/1 48/1/1 51/1/1
f 53/2/1 50/2/1 49/2/1
f 54/2/1 50/2/1 53/2/1
f 55/2/1 52/2/1 51/2/1
f 56/2/1 52/2/1 55/2/1
f 61/2/1 58/2/1 57/2/1
f 62/2/1 58/2/1 61/2/1
f 63/2/1 60/2/1 59/2/1
f 64/2/1 60/2/1 63/2/1
f 65/1/1 62/1/1 61/1/1
f 66/1/1 62/1/1 65/1/1
f 67/1/1 64/1/1 63/1/1
f 68/1/1 64/1/1 67/1/1
f 69/2/1 66/2/1 65/2/1
f 70/2/1 66/2/1 69/2/1
f 71/2/1 68/2/1 67/2/1
f 72/2/1 68/2/1 71/2/1
f 77/2/1 74/2/1 73/2/1
f 78/2/1 74/2/1 77/2/1
f 79/2/1 76/2/1 75/2/1
f 80/2/1 76/2/1 79/2/1
f 81/1/1 78/1/1 77/1/1
f 82/1/1 78/1/1 81/1/1
f 83/1/1 80/1/1 79/1/1
f 84/1/1 80/1/1 83/1/1
f 85/2/1 82/2/1 81/2/1
f 86/2/1 82/2/1 85/2/1
f 87/2/1 84/2/1 83/2/1
f 88/2/1 84/2/1 87/2/1
f 93/2/1 90/2/1 89/2/1
f 94/2/1 90/2/1 93/2/1
f 95/2/1 92/2/1 91/2/1
f 96/2/1 92/2/1 95/2/1
f 97/1/1 94/1/1 93/1/1
f 98/1/1 94/1/1 97/1/1
f 99/1/1 96/1/1 95/1/1
f 100/1/1 96/1/1 99/1/1
f 101/2/1 98/2/1 97/2/1
f 102/2/1 98/2/1 101/2/1
f 103/2/1 100/2/1 99/2/1
f 104/2/1 100/2/1 103/2/1
f 105/2/2 106/2/2 109/2/2
f 109/2/2 106/2/2 110/2/2
f 107/2/2 108/2/2 111/2/2
f 111/2/2 108/2/2 112/2/2
f 109/1/2 110/1/2 113/1/2
f 113/1/2 110/1/2 114/1/2
f 111/1/2 112/1/2 115/1/2
f 115/1/2 112/1/2 116/1/2
f 113/2/2 114/2/2 117/2/2
f 117/2/2 114/2/2 118/2/2
f 115/2/2 116/2/2 119/2/2
f 119/2/2 116/2/2 120/2/2
f 121/2/2 122/2/2 125/2/2
f 125/2/2 122/2/2 126/2/2
f 123/2/2 124/2/2 127/2/2
f 127/2/2 124/2/2 128/2/2
f 125/1/2 126/1/2 129/1/2
f 129/1/2 126/1/2 130/1/2
f 127/1/2 128/1/2 131/1/2
f 131/1/2 128/1/2 132/1/2
f 129/2/2 130/2/2 133/2/2
f 133/2/2 130/2/2 134/2/2
f 131/2/2 132/2/2 135/2/2
f 135/2/2 132/2/2 136/2/2
f 137/2/2 138/2/2 141/2/2
f 141/2/2 138/2/2 142/2/2
f 139/2/2 140/2/2 143/2/2
f 143/2/2 140/2/2 144/2/2
f 141/1/2 142/1/2 145/1/2
f 145/1/2 142/1/2 146/1/2
f 143/1/2 144/1/2 147/1/2
f 147/1/2 144/1/2 148/1/2
f 145/2/2 146/2/2 149/2/2
f 149/2/2 146/2/2 150/2/2
f 147/2/2 148/2/2 151/2/2
f 151/2/2 148/2/2 152/2/2
f 153/2/2 154/2/2 157/2/2
f 157/2/2 154/2/2 158/2/2
f 155/2/2 156/2/2 159/2/2
f 159/2/2 156/2/2 160/2/2
f 157/1/2 158/1/2 161/1/2
f 161/1/2 158/1/2 162/1/2
f 159/1/2 160/1/2 163/1/2
f 163/1/2 160/1/2 164/1/2
f 161/2/2 162/2/2 165/2/2
f 165/2/2 162/2/2 166/2/2
f 163/2/2 164/2/2 167/2/2
f 167/2/2 164/2/2 168/2/2
f 169/2/2 170/2/2 173/2/2
f 173/2/2 170/2/2 174/2/2
f 171/2/2 172/2/2 175/2/2
f 175/2/2 172/2/2 176/2/2
f 173/1/2 174/1/2 177/1/2
f 177/1/2 174/1/2 178/1/2
f 175/1/2 176/1/2 179/1/2
f 179/1/2 176/1/2 180/1/2
f 177/2/2 178/2/2 181/2/2
f 181/2/2 178/2/2 182/2/2
f 179/2/2 180/2/2 183/2/2
f 183/2/2 180/2/2 184/2/2
f 185/2/2 186/2/2 189/2/2
f 189/2/2 186/2/2 190/2/2
f 187/2/2 188/2/2 191/2/2
f 191/2/2 188/2/2 192/2/2
f 189/1/2 190/1/2 193/1/2
f 193/1/2 190/1/2 194/1/2
f 191/1/2 192/1/2 195/1/2
f 195/1/2 192/1/2 196/1/2
f 193/2/2 194/2/2 197/2/2
f 197/2/2 194/2/2 198/2/2
f 195/2/2 196/2/2 199/2/2
f 199/2/2 196/2/2 200/2/2
f 201/2/2 202/2/2 205/2/2
f 202/3/2 203/3/2 206/3/2
f 205/2/2 202/2/2 206/2/2
f 203/2/2 204/2/2 207/2/2
f 206/3/2 203/3/2 207/3/2
f 207/2/2 204/2/2 208/2/2
f 213/2/3 210/2/3 209/2/3
f 214/1/3 211/1/3 210/1/3
f 214/2/3 210/2/3 213/2/3
f 215/2/3 212/2/3 211/2/3
f 215/1/3 211/1/3 214/1/3
f 216/2/3 212/2/3 215/2/3
f 221/2/3 218/2/3 217/2/3
f 222/1/3 219/1/3 218/1/3
f 222/2/3 218/2/3 221/2/3
f 223/2/3 220/2/3 219/2/3
f 223/1/3 219/1/3 222/1/3
f 224/2/3 220/2/3 223/2/3
f 229/2/3 226/2/3 225/2/3
f 230/1/3 227/1/3 226/1/3
f 230/2/3 226/2/3 229/2/3
f 231/2/3 228/2/3 227/2/3
f 231/1/3 227/1/3 230/1/3
f 232/2/3 228/2/3 231/2/3
f 237/2/3 234/2/3 233/2/3
f 238/1/3 235/1/3 234/1/3
f 238/2/3 234/2/3 237/2/3
f 239/2/3 236/2/3 235/2/3
f 239/1/3 235/1/3 238/1/3
f 240/2/3 236/2/3 239/2/3
f 245/2/3 242/2/3 241/2/3
f 246/1/3 243/1/3 242/1/3
f 246/2/3 242/2/3 245/2/3
f 247/2/3 244/2/3 243/2/3
f 247/1/3 243/1/3 246/1/3
f 248/2/3 244/2/3 247/2/3
f 253/2/3 250/2/3 249/2/3
f 254/1/3 251/1/3 250/1/3
f 254/2/3 250/2/3 253/2/3
f 255/2/3 252/2/3 251/2/3
f 255/1/3 251/1/3 254/1/3
f 256/2/3 252/2/3 255/2/3
f 259/2/3 258/2/3 257/2/3
f 260/2/3 258/2/3 259/2/3
f 263/2/3 262/2/3 261/2/3
f 264/2/3 262/2/3 263/2/3
f 267/2/3 266/2/3 265/2/3
f 268/2/3 266/2/3 267/2/3
f 271/2/3 270/2/3 269/2/3
f 272/2/3 270/2/3 271/2/3
f 275/2/3 274/2/3 273/2/3
f 276/2/3 274/2/3 275/2/3
f 279/2/3 278/2/3 277/2/3
f 280/2/3 278/2/3 279/2/3
f 283/2/3 282/2/3 281/2/3
f 284/2/3 282/2/3 283/2/3
f 288/1/3 286/1/3 285/1/3
f 289/2/3 287/2/3 286/2/3
f 289/1/3 286/1/3 288/1/3
f 290/2/3 287/2/3 289/2/3
f 294/1/3 292/1/3 291/1/3
f 295/2/3 293/2/3 292/2/3
f 295/1/3 292/1/3 294/1/3
f 296/2/3 293/2/3 295/2/3
f 300/1/3 298/1/3 297/1/3
f 301/2/3 299/2/3 298/2/3
f 301/1/3 298/1/3 300/1/3
f 302/2/3 299/2/3 301/2/3
f 306/1/3 304/1/3 303/1/3
f 307/2/3 305/2/3 304/2/3
f 307/1/3 304/1/3 306/1/3
f 308/2/3 305/2/3 307/2/3
f 312/1/3 310/1/3 309/1/3
f 313/2/3 311/2/3 310/2/3
f 313/1/3 310/1/3 312/1/3
f 314/2/3 311/2/3 313/2/3
f 318/1/3 316/1/3 315/1/3
f 319/2/3 317/2/3 316/2/3
f 319/1/3 316/1/3 318/1/3
f 320/2/3 317/2/3 319/2/3
f 321/1/4 322/1/4 324/1/4
f 322/2/4 323/2/4 325/2/4
f 324/1/4 322/1/4 325/1/4
f 325/2/4 323/2/4 326/2/4
f 327/1/4 328/1/4 330/1/4
f 328/2/4 329/2/4 331/2/4
f 330/1/4 328/1/4 331/1/4
f 331/2/4 329/2/4 332/2/4
f 333/1/4 334/1/4 336/1/4
f 334/2/4 335/2/4 337/2/4
f 336/1/4 334/1/4 337/1/4
f 337/2/4 335/2/4 338/2/4
f 339/1/4 340/1/4 342/1/4
f 340/2/4 341/2/4 343/2/4
f 342/1/4 340/1/4 343/1/4
f 343/2/4 341/2/4 344/2/4
f 345/1/4 346/1/4 348/1/4
f 346/2/4 347/2/4 349/2/4
f 348/1/4 346/1/4 349/1/4
f 349/2/4 347/2/4 350/2/4
f 351/1/4 352/1/4 354/1/4
f 352/2/4 353/2/4 355/2/4
f 354/1/4 352/1/4 355/1/4
f 355/2/4 353/2/4 356/2/4
f 357/2/4 358/2/4 359/2/4
f 359/2/4 358/2/4 360/2/4
f 361/2/4 362/2/4 363/2/4
f 363/2/4 362/2/4 364/2/4
f 365/2/4 366/2/4 367/2/4
f 367/2/4 366/2/4 368/2/4
f 369/2/4 370/2/4 371/2/4
f 371/2/4 370/2/4 372/2/4
f 373/2/4 374/2/4 375/2/4
f 375/2/4 374/2/4 376/2/4
f 377/2/4 378/2/4 379/2/4
f 379/2/4 378/2/4 380/2/4
f 381/2/4 382/2/4 383/2/4
f 383/2/4 382/2/4 384/2/4
f 385/2/4 386/2/4 389/2/4
f 386/1/4 387/1/4 390/1/4
f 389/2/4 386/2/4 390/2/4
f 387/2/4 388/2/4 391/2/4
f 390/1/4 387/1/4 391/1/4
f 391/2/4 388/2/4 392/2/4
f 393/2/4 394/2/4 397/2/4
f 394/1/4 395/1/4 398/1/4
f 397/2/4 394/2/4 398/2/4
f 395/2/4 396/2/4 399/2/4
f 398/1/4 395/1/4 399/1/4
f 399/2/4 396/2/4 400/2/4
f 401/2/4 402/2/4 405/2/4
f 402/1/4 403/1/4 406/1/4
f 405/2/4 402/2/4 406/2/4
f 403/2/4 404/2/4 407/2/4
f 406/1/4 403/1/4 407/1/4
f 407/2/4 404/2/4 408/2/4
f 409/2/4 410/2/4 413/2/4
f 410/1/4 411/1/4 414/1/4
f 413/2/4 410/2/4 414/2/4
f 411/2/4 412/2/4 415/2/4
f 414/1/4 411/1/4 415/1/4
f 415/2/4 412/2/4 416/2/4
f 417/2/4 418/2/4 421/2/4
f 418/1/4 419/1/4 422/1/4
f 421/2/4 418/2/4 422/2/4
f 419/2/4 420/2/4 423/2/4
f 422/1/4 419/1/4 423/1/4
f 423/2/4 420/2/4 424/2/4
f 425/2/4 426/2/4 429/2/4
f 426/1/4 427/1/4 430/1/4
f 429/2/4 426/2/4 430/2/4
f 427/2/4 428/2/4 431/2/4
f 430/1/4 427/1/4 431/1/4
f 431/2/4 428/2/4 432/2/4
f 446/2/5 434/2/5 433/2/5
f 447/2/5 434/2/5 446/2/5
f 448/2/5 436/2/5 435/2/5
f 449/2/5 436/2/5 448/2/5
f 450/2/5 438/2/5 437/2/5
f 451/2/5 438/2/5 450/2/5
f 452/2/5 440/2/5 439/2/5
f 453/2/5 440/2/5 452/2/5
f 454/2/5 442/2/5 441/2/5
f 455/2/5 442/2/5 454/2/5
f 456/2/5 444/2/5 443/2/5
f 457/2/5 444/2/5 456/2/5
f 459/2/5 455/2/5 454/2/5
f 459/2/5 458/2/5 457/2/5
f 459/2/5 457/2/5 456/2/5
f 459/2/5 456/2/5 455/2/5
f 459/2/5 447/2/5 446/2/5
f 459/2/5 454/2/5 453/2/5
f 459/2/5 449/2/5 448/2/5
f 459/2/5 452/2/5 451/2/5
f 459/2/5 451/2/5 450/2/5
f 459/2/5 450/2/5 449/2/5
f 459/2/5 453/2/5 452/2/5
f 459/2/5 448/2/5 447/2/5
f 459/2/5 446/2/5 445/2/5
f 460/2/5 458/2/5 459/2/5
f 461/3/5 460/3/5 459/3/5
f 462/3/5 460/3/5 461/3/5
f 463/2/5 462/2/5 461/2/5
f 464/2/5 462/2/5 463/2/5
f 465/2/5 462/2/5 464/2/5
f 466/2/5 462/2/5 465/2/5
f 467/2/5 462/2/5 466/2/5
f 468/2/5 462/2/5 467/2/5
f 469/2/5 462/2/5 468/2/5
f 470/2/5 462/2/5 469/2/5
f 471/2/5 462/2/5 470/2/5
f 472/2/5 462/2/5 471/2/5
f 473/2/5 462/2/5 472/2/5
f 474/2/5 462/2/5 473/2/5
f 475/2/5 462/2/5 474/2/5
f 476/2/5 462/2/5 475/2/5
f 477/2/5 465/2/5 464/2/5
f 478/2/5 465/2/5 477/2/5
f 479/2/5 467/2/5 466/2/5
f 480/2/5 467/2/5 479/2/5
f 481/2/5 469/2/5 468/2/5
f 482/2/5 469/2/5 481/2/5
f 483/2/5 471/2/5 470/2/5
f 484/2/5 471/2/5 483/2/5
f 485/2/5 473/2/5 472/2/5
f 486/2/5 473/2/5 485/2/5
f 487/2/5 475/2/5 474/2/5
f 488/2/5 475/2/5 487/2/5
f 489/2/6 490/2/6 503/2/6
f 501/2/6 502/2/6 503/2/6
f 500/2/6 501/2/6 503/2/6
f 499/2/6 500/2/6 503/2/6
f 498/2/6 499/2/6 503/2/6
f 497/2/6 498/2/6 503/2/6
f 496/2/6 497/2/6 503/2/6
f 495/2/6 496/2/6 503/2/6
f 494/2/6 495/2/6 503/2/6
f 493/2/6 494/2/6 503/2/6
f 492/2/6 493/2/6 503/2/6
f 491/2/6 492/2/6 503/2/6
f 490/2/6 491/2/6 503/2/6
f 503/2/6 502/2/6 504/2/6
f 503/3/6 504/3/6 505/3/6
f 505/3/6 504/3/6 506/3/6
f 505/2/6 506/2/6 507/2/6
f 507/2/6 506/2/6 508/2/6
f 508/2/6 506/2/6 509/2/6
f 509/2/6 506/2/6 510/2/6
f 510/2/6 506/2/6 511/2/6
f 511/2/6 506/2/6 512/2/6
f 512/2/6 506/2/6 513/2/6
f 513/2/6 506/2/6 514/2/6
f 514/2/6 506/2/6 515/2/6
f 515/2/6 506/2/6 516/2/6
f 516/2/6 506/2/6 517/2/6
f 517/2/6 506/2/6 518/2/6
f 518/2/6 506/2/6 519/2/6
f 519/2/6 506/2/6 520/2/6
f 521/2/6 522/2/6 533/2/6
f 533/2/6 522/2/6 534/2/6
f 523/2/6 524/2/6 535/2/6
f 535/2/6 524/2/6 536/2/6
f 525/2/6 526/2/6 537/2/6
f 537/2/6 526/2/6 538/2/6
f 527/2/6 528/2/6 539/2/6
f 539/2/6 528/2/6 540/2/6
f 529/2/6 530/2/6 541/2/6
f 541/2/6 530/2/6 542/2/6
f 531/2/6 532/2/6 543/2/6
f 543/2/6 532/2/6 544/2/6
f 545/2/6 546/2/6 557/2/6
f 557/2/6 546/2/6 558/2/6
f 547/2/6 548/2/6 559/2/6
f 559/2/6 548/2/6 560/2/6
f 549/2/6 550/2/6 561/2/6
f 561/2/6 550/2/6 562/2/6
f 551/2/6 552/2/6 563/2/6
f 563/2/6 552/2/6 564/2/6
f 553/2/6 554/2/6 565/2/6
f 565/2/6 554/2/6 566/2/6
f 555/2/6 556/2/6 567/2/6
f 567/2/6 556/2/6 568/2/6
