# MagicaVoxel @ Ephtracy

# group
o 

# material
mtllib tower4-0.mtl
usemtl palette

# normals
vn -1 0 0
vn 1 0 0
vn 0 0 1
vn 0 0 -1
vn 0 -1 0
vn 0 1 0

# texcoords
vt 0.154297 0.5
vt 0.185547 0.5
vt 0.248047 0.5
vt 0.279297 0.5

# verts
v -0.3 2.2 0.5
v -0.3 2.2 0.4
v -0.3 2.2 0.1
v -0.3 2.2 -0.2
v -0.3 2.3 0.5
v -0.3 2.3 0.4
v -0.3 2.4 0.1
v -0.3 2.4 -0.2
v -0.2 2 0.1
v -0.2 2 -0.1
v -0.2 2.1 0.5
v -0.2 2.1 0.4
v -0.2 2.1 0.2
v -0.2 2.1 0.1
v -0.2 2.1 -0.1
v -0.2 2.1 -0.2
v -0.2 2.1 -0.3
v -0.2 2.1 -0.6
v -0.2 2.2 1.5
v -0.2 2.2 1.4
v -0.2 2.2 0.5
v -0.2 2.2 0.4
v -0.2 2.2 0.2
v -0.2 2.2 0.1
v -0.2 2.2 -0.2
v -0.2 2.2 -0.4
v -0.2 2.2 -0.5
v -0.2 2.3 1.5
v -0.2 2.3 1.4
v -0.2 2.3 0.5
v -0.2 2.3 0.4
v -0.2 2.3 0.2
v -0.2 2.3 0.1
v -0.2 2.4 0.5
v -0.2 2.4 0.4
v -0.2 2.4 0.2
v -0.2 2.4 0.1
v -0.2 2.4 -0.4
v -0.2 2.4 -0.5
v -0.2 2.4 -0.6
v -0.2 2.5 -0.3
v -0.2 2.5 -0.5
v -0.1 2 0.2
v -0.1 2 0.1
v -0.1 2 -0.1
v -0.1 2 -0.2
v -0.1 2.1 0.6
v -0.1 2.1 0.5
v -0.1 2.1 0.4
v -0.1 2.1 0.2
v -0.1 2.1 0.1
v -0.1 2.1 -0.1
v -0.1 2.1 -0.2
v -0.1 2.1 -0.3
v -0.1 2.2 0.6
v -0.1 2.2 0.5
v -0.1 2.2 0.4
v -0.1 2.2 0.2
v -0.1 2.3 0.6
v -0.1 2.3 0.5
v -0.1 2.3 0.4
v -0.1 2.3 0.2
v -0.1 2.3 -0.2
v -0.1 2.3 -0.3
v -0.1 2.4 0.6
v -0.1 2.4 0.5
v -0.1 2.4 0.4
v -0.1 2.4 0.2
v -0.1 2.4 -0.1
v -0.1 2.5 0.2
v -0.1 2.5 -0.1
v 0.1 2.2 1.5
v 0.1 2.2 1.4
v 0.1 2.2 0.6
v 0.1 2.3 1.5
v 0.1 2.3 1.4
v 0.1 2.3 0.6
v -0.1 2.2 1.5
v -0.1 2.2 1.4
v -0.1 2.2 0.6
v -0.1 2.3 1.5
v -0.1 2.3 1.4
v -0.1 2.3 0.6
v 0.1 2 0.2
v 0.1 2 0.1
v 0.1 2 -0.1
v 0.1 2 -0.2
v 0.1 2.1 0.6
v 0.1 2.1 0.5
v 0.1 2.1 0.4
v 0.1 2.1 0.2
v 0.1 2.1 0.1
v 0.1 2.1 -0.1
v 0.1 2.1 -0.2
v 0.1 2.1 -0.3
v 0.1 2.2 0.6
v 0.1 2.2 0.5
v 0.1 2.2 0.4
v 0.1 2.2 0.2
v 0.1 2.3 0.6
v 0.1 2.3 0.5
v 0.1 2.3 0.4
v 0.1 2.3 0.2
v 0.1 2.3 -0.2
v 0.1 2.3 -0.3
v 0.1 2.4 0.6
v 0.1 2.4 0.5
v 0.1 2.4 0.4
v 0.1 2.4 0.2
v 0.1 2.4 -0.1
v 0.1 2.5 0.2
v 0.1 2.5 -0.1
v 0.2 2 0.1
v 0.2 2 -0.1
v 0.2 2.1 0.5
v 0.2 2.1 0.4
v 0.2 2.1 0.2
v 0.2 2.1 0.1
v 0.2 2.1 -0.1
v 0.2 2.1 -0.2
v 0.2 2.1 -0.3
v 0.2 2.1 -0.6
v 0.2 2.2 1.5
v 0.2 2.2 1.4
v 0.2 2.2 0.5
v 0.2 2.2 0.4
v 0.2 2.2 0.2
v 0.2 2.2 0.1
v 0.2 2.2 -0.2
v 0.2 2.2 -0.4
v 0.2 2.2 -0.5
v 0.2 2.3 1.5
v 0.2 2.3 1.4
v 0.2 2.3 0.5
v 0.2 2.3 0.4
v 0.2 2.3 0.2
v 0.2 2.3 0.1
v 0.2 2.4 0.5
v 0.2 2.4 0.4
v 0.2 2.4 0.2
v 0.2 2.4 0.1
v 0.2 2.4 -0.4
v 0.2 2.4 -0.5
v 0.2 2.4 -0.6
v 0.2 2.5 -0.3
v 0.2 2.5 -0.5
v 0.3 2.2 0.5
v 0.3 2.2 0.4
v 0.3 2.2 0.1
v 0.3 2.2 -0.2
v 0.3 2.3 0.5
v 0.3 2.3 0.4
v 0.3 2.4 0.1
v 0.3 2.4 -0.2
v -0.2 2.2 1.5
v -0.2 2.3 1.5
v -0.1 2.2 1.5
v -0.1 2.3 1.5
v 0.1 2.2 1.5
v 0.1 2.3 1.5
v 0.2 2.2 1.5
v 0.2 2.3 1.5
v -0.1 2.1 0.6
v -0.1 2.2 0.6
v -0.1 2.3 0.6
v -0.1 2.4 0.6
v 0.1 2.1 0.6
v 0.1 2.2 0.6
v 0.1 2.3 0.6
v 0.1 2.4 0.6
v -0.3 2.2 0.5
v -0.3 2.3 0.5
v -0.2 2.1 0.5
v -0.2 2.2 0.5
v -0.2 2.3 0.5
v -0.2 2.4 0.5
v -0.1 2.1 0.5
v -0.1 2.2 0.5
v -0.1 2.3 0.5
v -0.1 2.4 0.5
v 0.1 2.1 0.5
v 0.1 2.2 0.5
v 0.1 2.3 0.5
v 0.1 2.4 0.5
v 0.2 2.1 0.5
v 0.2 2.2 0.5
v 0.2 2.3 0.5
v 0.2 2.4 0.5
v 0.3 2.2 0.5
v 0.3 2.3 0.5
v -0.2 2.1 0.2
v -0.2 2.2 0.2
v -0.2 2.3 0.2
v -0.2 2.4 0.2
v -0.1 2 0.2
v -0.1 2.1 0.2
v -0.1 2.2 0.2
v -0.1 2.3 0.2
v -0.1 2.4 0.2
v -0.1 2.5 0.2
v 0.1 2 0.2
v 0.1 2.1 0.2
v 0.1 2.2 0.2
v 0.1 2.3 0.2
v 0.1 2.4 0.2
v 0.1 2.5 0.2
v 0.2 2.1 0.2
v 0.2 2.2 0.2
v 0.2 2.3 0.2
v 0.2 2.4 0.2
v -0.3 2.2 0.1
v -0.3 2.4 0.1
v -0.2 2 0.1
v -0.2 2.1 0.1
v -0.2 2.2 0.1
v -0.2 2.3 0.1
v -0.2 2.4 0.1
v -0.1 2 0.1
v -0.1 2.1 0.1
v 0.1 2 0.1
v 0.1 2.1 0.1
v 0.2 2 0.1
v 0.2 2.1 0.1
v 0.2 2.2 0.1
v 0.2 2.3 0.1
v 0.2 2.4 0.1
v 0.3 2.2 0.1
v 0.3 2.4 0.1
v -0.2 2.1 -0.3
v -0.2 2.5 -0.3
v -0.1 2.1 -0.3
v -0.1 2.3 -0.3
v 0.1 2.1 -0.3
v 0.1 2.3 -0.3
v 0.2 2.1 -0.3
v 0.2 2.5 -0.3
v -0.3 2.2 0.4
v -0.3 2.3 0.4
v -0.2 2.1 0.4
v -0.2 2.2 0.4
v -0.2 2.3 0.4
v -0.2 2.4 0.4
v -0.1 2.1 0.4
v -0.1 2.2 0.4
v -0.1 2.3 0.4
v -0.1 2.4 0.4
v 0.1 2.1 0.4
v 0.1 2.2 0.4
v 0.1 2.3 0.4
v 0.1 2.4 0.4
v 0.2 2.1 0.4
v 0.2 2.2 0.4
v 0.2 2.3 0.4
v 0.2 2.4 0.4
v 0.3 2.2 0.4
v 0.3 2.3 0.4
v -0.2 2 -0.1
v -0.2 2.1 -0.1
v -0.1 2 -0.1
v -0.1 2.1 -0.1
v -0.1 2.4 -0.1
v -0.1 2.5 -0.1
v 0.1 2 -0.1
v 0.1 2.1 -0.1
v 0.1 2.4 -0.1
v 0.1 2.5 -0.1
v 0.2 2 -0.1
v 0.2 2.1 -0.1
v -0.3 2.2 -0.2
v -0.3 2.4 -0.2
v -0.2 2.1 -0.2
v -0.2 2.2 -0.2
v -0.1 2 -0.2
v -0.1 2.1 -0.2
v -0.1 2.3 -0.2
v 0.1 2 -0.2
v 0.1 2.1 -0.2
v 0.1 2.3 -0.2
v 0.2 2.1 -0.2
v 0.2 2.2 -0.2
v 0.3 2.2 -0.2
v 0.3 2.4 -0.2
v -0.2 2.4 -0.5
v -0.2 2.5 -0.5
v 0.2 2.4 -0.5
v 0.2 2.5 -0.5
v -0.2 2.1 -0.6
v -0.2 2.4 -0.6
v 0.2 2.1 -0.6
v 0.2 2.4 -0.6
v -0.1 2 0.2
v 0.1 2 0.2
v -0.2 2 0.1
v -0.1 2 0.1
v 0.1 2 0.1
v 0.2 2 0.1
v -0.2 2 -0.1
v -0.1 2 -0.1
v 0.1 2 -0.1
v 0.2 2 -0.1
v -0.1 2 -0.2
v 0.1 2 -0.2
v -0.1 2.1 0.6
v 0.1 2.1 0.6
v -0.2 2.1 0.5
v -0.1 2.1 0.5
v 0.1 2.1 0.5
v 0.2 2.1 0.5
v -0.2 2.1 0.4
v -0.1 2.1 0.4
v 0.1 2.1 0.4
v 0.2 2.1 0.4
v -0.2 2.1 0.2
v -0.1 2.1 0.2
v 0.1 2.1 0.2
v 0.2 2.1 0.2
v -0.2 2.1 0.1
v -0.1 2.1 0.1
v 0.1 2.1 0.1
v 0.2 2.1 0.1
v -0.2 2.1 -0.1
v -0.1 2.1 -0.1
v 0.1 2.1 -0.1
v 0.2 2.1 -0.1
v -0.2 2.1 -0.2
v -0.1 2.1 -0.2
v 0.1 2.1 -0.2
v 0.2 2.1 -0.2
v -0.2 2.1 -0.3
v -0.1 2.1 -0.3
v 0.1 2.1 -0.3
v 0.2 2.1 -0.3
v -0.2 2.1 -0.6
v 0.2 2.1 -0.6
v -0.2 2.2 1.5
v -0.1 2.2 1.5
v 0.1 2.2 1.5
v 0.2 2.2 1.5
v -0.2 2.2 1.4
v -0.1 2.2 1.4
v 0.1 2.2 1.4
v 0.2 2.2 1.4
v -0.1 2.2 0.6
v 0.1 2.2 0.6
v -0.3 2.2 0.5
v -0.2 2.2 0.5
v -0.1 2.2 0.5
v 0.1 2.2 0.5
v 0.2 2.2 0.5
v 0.3 2.2 0.5
v -0.3 2.2 0.4
v -0.2 2.2 0.4
v -0.1 2.2 0.4
v 0.1 2.2 0.4
v 0.2 2.2 0.4
v 0.3 2.2 0.4
v -0.2 2.2 0.2
v -0.1 2.2 0.2
v 0.1 2.2 0.2
v 0.2 2.2 0.2
v -0.3 2.2 0.1
v -0.2 2.2 0.1
v 0.2 2.2 0.1
v 0.3 2.2 0.1
v -0.3 2.2 -0.2
v -0.2 2.2 -0.2
v 0.2 2.2 -0.2
v 0.3 2.2 -0.2
v -0.2 2.3 1.5
v -0.1 2.3 1.5
v 0.1 2.3 1.5
v 0.2 2.3 1.5
v -0.2 2.3 1.4
v -0.1 2.3 1.4
v 0.1 2.3 1.4
v 0.2 2.3 1.4
v -0.1 2.3 0.6
v 0.1 2.3 0.6
v -0.3 2.3 0.5
v -0.2 2.3 0.5
v -0.1 2.3 0.5
v 0.1 2.3 0.5
v 0.2 2.3 0.5
v 0.3 2.3 0.5
v -0.3 2.3 0.4
v -0.2 2.3 0.4
v -0.1 2.3 0.4
v 0.1 2.3 0.4
v 0.2 2.3 0.4
v 0.3 2.3 0.4
v -0.2 2.3 0.2
v -0.1 2.3 0.2
v 0.1 2.3 0.2
v 0.2 2.3 0.2
v -0.1 2.3 -0.2
v 0.1 2.3 -0.2
v -0.1 2.3 -0.3
v 0.1 2.3 -0.3
v -0.1 2.4 0.6
v 0.1 2.4 0.6
v -0.2 2.4 0.5
v -0.1 2.4 0.5
v 0.1 2.4 0.5
v 0.2 2.4 0.5
v -0.2 2.4 0.4
v -0.1 2.4 0.4
v 0.1 2.4 0.4
v 0.2 2.4 0.4
v -0.2 2.4 0.2
v -0.1 2.4 0.2
v 0.1 2.4 0.2
v 0.2 2.4 0.2
v -0.3 2.4 0.1
v -0.2 2.4 0.1
v 0.2 2.4 0.1
v 0.3 2.4 0.1
v -0.1 2.4 -0.1
v 0.1 2.4 -0.1
v -0.3 2.4 -0.2
v 0.3 2.4 -0.2
v -0.2 2.4 -0.5
v 0.2 2.4 -0.5
v -0.2 2.4 -0.6
v 0.2 2.4 -0.6
v -0.1 2.5 0.2
v 0.1 2.5 0.2
v -0.1 2.5 -0.1
v 0.1 2.5 -0.1
v -0.2 2.5 -0.3
v 0.2 2.5 -0.3
v -0.2 2.5 -0.5
v 0.2 2.5 -0.5

# faces
f 5/3/1 2/3/1 1/3/1
f 6/3/1 2/3/1 5/3/1
f 7/3/1 4/3/1 3/3/1
f 8/3/1 4/3/1 7/3/1
f 14/3/1 10/3/1 9/3/1
f 15/3/1 10/3/1 14/3/1
f 21/3/1 12/3/1 11/3/1
f 22/3/1 12/3/1 21/3/1
f 23/3/1 14/3/1 13/3/1
f 23/3/1 15/3/1 14/3/1
f 23/3/1 16/3/1 15/3/1
f 24/3/1 16/3/1 23/3/1
f 25/3/1 16/3/1 24/3/1
f 26/3/1 18/3/1 17/3/1
f 27/3/1 18/3/1 26/3/1
f 28/1/1 20/1/1 19/1/1
f 29/2/1 21/2/1 20/2/1
f 29/1/1 20/1/1 28/1/1
f 30/2/1 21/2/1 29/2/1
f 31/4/1 23/4/1 22/4/1
f 31/4/1 24/4/1 23/4/1
f 32/4/1 24/4/1 31/4/1
f 33/4/1 24/4/1 32/4/1
f 34/3/1 31/3/1 30/3/1
f 35/3/1 31/3/1 34/3/1
f 36/3/1 33/3/1 32/3/1
f 37/3/1 33/3/1 36/3/1
f 38/1/1 27/1/1 26/1/1
f 38/3/1 26/3/1 17/3/1
f 39/3/1 18/3/1 27/3/1
f 39/1/1 27/1/1 38/1/1
f 40/3/1 18/3/1 39/3/1
f 41/3/1 38/3/1 17/3/1
f 41/3/1 39/3/1 38/3/1
f 42/3/1 39/3/1 41/3/1
f 50/3/1 44/3/1 43/3/1
f 51/3/1 44/3/1 50/3/1
f 52/3/1 46/3/1 45/3/1
f 53/3/1 46/3/1 52/3/1
f 55/3/1 48/3/1 47/3/1
f 56/3/1 48/3/1 55/3/1
f 57/3/1 50/3/1 49/3/1
f 58/3/1 50/3/1 57/3/1
f 63/3/1 54/3/1 53/3/1
f 64/3/1 54/3/1 63/3/1
f 65/3/1 60/3/1 59/3/1
f 66/3/1 60/3/1 65/3/1
f 67/3/1 62/3/1 61/3/1
f 68/3/1 62/3/1 67/3/1
f 70/3/1 69/3/1 68/3/1
f 71/3/1 69/3/1 70/3/1
f 75/1/1 73/1/1 72/1/1
f 76/2/1 74/2/1 73/2/1
f 76/1/1 73/1/1 75/1/1
f 77/2/1 74/2/1 76/2/1
f 78/1/2 79/1/2 81/1/2
f 79/2/2 80/2/2 82/2/2
f 81/1/2 79/1/2 82/1/2
f 82/2/2 80/2/2 83/2/2
f 84/3/2 85/3/2 91/3/2
f 91/3/2 85/3/2 92/3/2
f 86/3/2 87/3/2 93/3/2
f 93/3/2 87/3/2 94/3/2
f 88/3/2 89/3/2 96/3/2
f 96/3/2 89/3/2 97/3/2
f 90/3/2 91/3/2 98/3/2
f 98/3/2 91/3/2 99/3/2
f 94/3/2 95/3/2 104/3/2
f 104/3/2 95/3/2 105/3/2
f 100/3/2 101/3/2 106/3/2
f 106/3/2 101/3/2 107/3/2
f 102/3/2 103/3/2 108/3/2
f 108/3/2 103/3/2 109/3/2
f 109/3/2 110/3/2 111/3/2
f 111/3/2 110/3/2 112/3/2
f 113/3/2 114/3/2 118/3/2
f 118/3/2 114/3/2 119/3/2
f 115/3/2 116/3/2 125/3/2
f 125/3/2 116/3/2 126/3/2
f 117/3/2 118/3/2 127/3/2
f 118/3/2 119/3/2 127/3/2
f 119/3/2 120/3/2 127/3/2
f 127/3/2 120/3/2 128/3/2
f 128/3/2 120/3/2 129/3/2
f 121/3/2 122/3/2 130/3/2
f 130/3/2 122/3/2 131/3/2
f 123/1/2 124/1/2 132/1/2
f 124/2/2 125/2/2 133/2/2
f 132/1/2 124/1/2 133/1/2
f 133/2/2 125/2/2 134/2/2
f 126/4/2 127/4/2 135/4/2
f 127/4/2 128/4/2 135/4/2
f 135/4/2 128/4/2 136/4/2
f 136/4/2 128/4/2 137/4/2
f 134/3/2 135/3/2 138/3/2
f 138/3/2 135/3/2 139/3/2
f 136/3/2 137/3/2 140/3/2
f 140/3/2 137/3/2 141/3/2
f 130/1/2 131/1/2 142/1/2
f 121/3/2 130/3/2 142/3/2
f 131/3/2 122/3/2 143/3/2
f 142/1/2 131/1/2 143/1/2
f 143/3/2 122/3/2 144/3/2
f 121/3/2 142/3/2 145/3/2
f 142/3/2 143/3/2 145/3/2
f 145/3/2 143/3/2 146/3/2
f 147/3/2 148/3/2 151/3/2
f 151/3/2 148/3/2 152/3/2
f 149/3/2 150/3/2 153/3/2
f 153/3/2 150/3/2 154/3/2
f 157/1/3 156/1/3 155/1/3
f 158/1/3 156/1/3 157/1/3
f 161/1/3 160/1/3 159/1/3
f 162/1/3 160/1/3 161/1/3
f 167/3/3 164/3/3 163/3/3
f 167/3/3 166/3/3 165/3/3
f 167/3/3 165/3/3 164/3/3
f 168/3/3 166/3/3 167/3/3
f 169/3/3 166/3/3 168/3/3
f 170/3/3 166/3/3 169/3/3
f 174/3/3 172/3/3 171/3/3
f 175/3/3 172/3/3 174/3/3
f 177/3/3 174/3/3 173/3/3
f 178/3/3 174/3/3 177/3/3
f 179/3/3 176/3/3 175/3/3
f 180/3/3 176/3/3 179/3/3
f 185/3/3 182/3/3 181/3/3
f 186/3/3 182/3/3 185/3/3
f 187/3/3 184/3/3 183/3/3
f 188/3/3 184/3/3 187/3/3
f 189/3/3 187/3/3 186/3/3
f 190/3/3 187/3/3 189/3/3
f 196/3/3 192/3/3 191/3/3
f 197/3/3 192/3/3 196/3/3
f 198/3/3 194/3/3 193/3/3
f 199/3/3 194/3/3 198/3/3
f 201/3/3 196/3/3 195/3/3
f 202/3/3 196/3/3 201/3/3
f 205/3/3 200/3/3 199/3/3
f 206/3/3 200/3/3 205/3/3
f 207/3/3 203/3/3 202/3/3
f 208/3/3 203/3/3 207/3/3
f 209/3/3 205/3/3 204/3/3
f 210/3/3 205/3/3 209/3/3
f 215/3/3 212/3/3 211/3/3
f 216/3/3 212/3/3 215/3/3
f 217/3/3 212/3/3 216/3/3
f 218/3/3 214/3/3 213/3/3
f 219/3/3 214/3/3 218/3/3
f 222/3/3 221/3/3 220/3/3
f 223/3/3 221/3/3 222/3/3
f 227/3/3 226/3/3 225/3/3
f 227/3/3 225/3/3 224/3/3
f 228/3/3 226/3/3 227/3/3
f 231/3/3 230/3/3 229/3/3
f 232/3/3 230/3/3 231/3/3
f 234/3/3 230/3/3 232/3/3
f 235/3/3 234/3/3 233/3/3
f 236/3/3 230/3/3 234/3/3
f 236/3/3 234/3/3 235/3/3
f 237/3/4 238/3/4 240/3/4
f 240/3/4 238/3/4 241/3/4
f 239/3/4 240/3/4 243/3/4
f 243/3/4 240/3/4 244/3/4
f 241/3/4 242/3/4 245/3/4
f 245/3/4 242/3/4 246/3/4
f 247/3/4 248/3/4 251/3/4
f 251/3/4 248/3/4 252/3/4
f 249/3/4 250/3/4 253/3/4
f 253/3/4 250/3/4 254/3/4
f 252/3/4 253/3/4 255/3/4
f 255/3/4 253/3/4 256/3/4
f 257/3/4 258/3/4 259/3/4
f 259/3/4 258/3/4 260/3/4
f 261/3/4 262/3/4 265/3/4
f 265/3/4 262/3/4 266/3/4
f 263/3/4 264/3/4 267/3/4
f 267/3/4 264/3/4 268/3/4
f 269/3/4 270/3/4 272/3/4
f 271/3/4 272/3/4 274/3/4
f 272/3/4 270/3/4 275/3/4
f 274/3/4 272/3/4 275/3/4
f 273/3/4 274/3/4 276/3/4
f 276/3/4 274/3/4 277/3/4
f 275/3/4 270/3/4 278/3/4
f 277/3/4 278/3/4 279/3/4
f 279/3/4 278/3/4 280/3/4
f 280/3/4 278/3/4 281/3/4
f 278/3/4 270/3/4 282/3/4
f 281/3/4 278/3/4 282/3/4
f 283/3/4 284/3/4 285/3/4
f 285/3/4 284/3/4 286/3/4
f 287/3/4 288/3/4 289/3/4
f 289/3/4 288/3/4 290/3/4
f 294/3/5 292/3/5 291/3/5
f 295/3/5 292/3/5 294/3/5
f 297/3/5 294/3/5 293/3/5
f 297/3/5 296/3/5 295/3/5
f 297/3/5 295/3/5 294/3/5
f 298/3/5 296/3/5 297/3/5
f 299/3/5 296/3/5 298/3/5
f 300/3/5 296/3/5 299/3/5
f 301/3/5 299/3/5 298/3/5
f 302/3/5 299/3/5 301/3/5
f 306/3/5 304/3/5 303/3/5
f 307/3/5 304/3/5 306/3/5
f 309/3/5 306/3/5 305/3/5
f 309/3/5 308/3/5 307/3/5
f 309/3/5 307/3/5 306/3/5
f 310/3/5 308/3/5 309/3/5
f 311/3/5 308/3/5 310/3/5
f 312/3/5 308/3/5 311/3/5
f 314/3/5 311/3/5 310/3/5
f 315/3/5 311/3/5 314/3/5
f 317/3/5 314/3/5 313/3/5
f 318/3/5 314/3/5 317/3/5
f 319/3/5 316/3/5 315/3/5
f 320/3/5 316/3/5 319/3/5
f 325/3/5 322/3/5 321/3/5
f 326/3/5 322/3/5 325/3/5
f 327/3/5 324/3/5 323/3/5
f 328/3/5 324/3/5 327/3/5
f 330/3/5 327/3/5 326/3/5
f 331/3/5 327/3/5 330/3/5
f 333/3/5 330/3/5 329/3/5
f 333/3/5 332/3/5 331/3/5
f 333/3/5 331/3/5 330/3/5
f 334/3/5 332/3/5 333/3/5
f 339/1/5 336/1/5 335/1/5
f 340/1/5 336/1/5 339/1/5
f 341/1/5 338/1/5 337/1/5
f 342/1/5 338/1/5 341/1/5
f 343/2/5 340/2/5 339/2/5
f 344/2/5 342/2/5 341/2/5
f 346/2/5 343/2/5 339/2/5
f 347/2/5 343/2/5 346/2/5
f 348/2/5 342/2/5 344/2/5
f 349/2/5 342/2/5 348/2/5
f 351/3/5 346/3/5 345/3/5
f 352/3/5 346/3/5 351/3/5
f 355/3/5 350/3/5 349/3/5
f 356/3/5 350/3/5 355/3/5
f 357/4/5 353/4/5 352/4/5
f 358/4/5 353/4/5 357/4/5
f 359/4/5 355/4/5 354/4/5
f 360/4/5 355/4/5 359/4/5
f 365/3/5 362/3/5 361/3/5
f 366/3/5 362/3/5 365/3/5
f 367/3/5 364/3/5 363/3/5
f 368/3/5 364/3/5 367/3/5
f 369/1/6 370/1/6 373/1/6
f 373/1/6 370/1/6 374/1/6
f 371/1/6 372/1/6 375/1/6
f 375/1/6 372/1/6 376/1/6
f 373/2/6 374/2/6 377/2/6
f 375/2/6 376/2/6 378/2/6
f 373/2/6 377/2/6 380/2/6
f 380/2/6 377/2/6 381/2/6
f 378/2/6 376/2/6 382/2/6
f 382/2/6 376/2/6 383/2/6
f 379/3/6 380/3/6 385/3/6
f 385/3/6 380/3/6 386/3/6
f 383/3/6 384/3/6 389/3/6
f 389/3/6 384/3/6 390/3/6
f 386/4/6 387/4/6 391/4/6
f 391/4/6 387/4/6 392/4/6
f 388/4/6 389/4/6 393/4/6
f 393/4/6 389/4/6 394/4/6
f 395/3/6 396/3/6 397/3/6
f 397/3/6 396/3/6 398/3/6
f 399/3/6 400/3/6 402/3/6
f 402/3/6 400/3/6 403/3/6
f 401/3/6 402/3/6 405/3/6
f 403/3/6 404/3/6 405/3/6
f 402/3/6 403/3/6 405/3/6
f 405/3/6 404/3/6 406/3/6
f 406/3/6 404/3/6 407/3/6
f 407/3/6 404/3/6 408/3/6
f 406/3/6 407/3/6 410/3/6
f 410/3/6 407/3/6 411/3/6
f 409/3/6 410/3/6 414/3/6
f 411/3/6 412/3/6 415/3/6
f 413/3/6 414/3/6 417/3/6
f 414/3/6 410/3/6 417/3/6
f 411/3/6 415/3/6 418/3/6
f 415/3/6 416/3/6 418/3/6
f 413/3/6 417/3/6 419/3/6
f 417/3/6 418/3/6 419/3/6
f 418/3/6 416/3/6 420/3/6
f 419/3/6 418/3/6 420/3/6
f 421/3/6 422/3/6 423/3/6
f 423/3/6 422/3/6 424/3/6
f 425/3/6 426/3/6 427/3/6
f 427/3/6 426/3/6 428/3/6
f 429/3/6 430/3/6 431/3/6
f 431/3/6 430/3/6 432/3/6
