# MagicaVoxel @ Ephtracy

# group
o 

# material
mtllib signboard3.mtl
usemtl palette

# normals
vn -1 0 0
vn 1 0 0
vn 0 0 1
vn 0 0 -1
vn 0 -1 0
vn 0 1 0

# texcoords
vt 0.216797 0.5
vt 0.279297 0.5

# verts
v -0.4 0 0.4
v -0.4 0 -0.4
v -0.4 0.1 0.2
v -0.4 0.1 -0.2
v -0.4 0.2 0.4
v -0.4 0.2 0.2
v -0.4 0.2 -0.2
v -0.4 0.2 -0.4
v 0.4 0 0.4
v 0.4 0 -0.4
v 0.4 0.1 0.2
v 0.4 0.1 -0.2
v 0.4 0.2 0.4
v 0.4 0.2 0.2
v 0.4 0.2 -0.2
v 0.4 0.2 -0.4
v -0.4 0 0.4
v -0.4 0.2 0.4
v 0.4 0 0.4
v 0.4 0.2 0.4
v -0.4 0 -0.4
v -0.4 0.2 -0.4
v 0.4 0 -0.4
v 0.4 0.2 -0.4
v -0.4 0 0.4
v 0.4 0 0.4
v -0.4 0 -0.4
v 0.4 0 -0.4
v -0.4 0.2 0.4
v 0.4 0.2 0.4
v -0.3 0.2 0.3
v -0.1 0.2 0.3
v 0.1 0.2 0.3
v 0.3 0.2 0.3
v -0.4 0.2 0.2
v -0.3 0.2 0.2
v -0.2 0.2 0.2
v -0.1 0.2 0.2
v 0.1 0.2 0.2
v 0.2 0.2 0.2
v 0.3 0.2 0.2
v 0.4 0.2 0.2
v -0.3 0.2 0.1
v -0.2 0.2 0.1
v -0.1 0.2 0.1
v 0.1 0.2 0.1
v 0.2 0.2 0.1
v 0.3 0.2 0.1
v -0.3 0.2 -0.1
v -0.2 0.2 -0.1
v -0.1 0.2 -0.1
v 0.1 0.2 -0.1
v 0.2 0.2 -0.1
v 0.3 0.2 -0.1
v -0.4 0.2 -0.2
v -0.3 0.2 -0.2
v -0.2 0.2 -0.2
v -0.1 0.2 -0.2
v 0.1 0.2 -0.2
v 0.2 0.2 -0.2
v 0.3 0.2 -0.2
v 0.4 0.2 -0.2
v -0.3 0.2 -0.3
v -0.1 0.2 -0.3
v 0.1 0.2 -0.3
v 0.3 0.2 -0.3
v -0.4 0.2 -0.4
v 0.4 0.2 -0.4

# faces
f 3/2/1 2/2/1 1/2/1
f 4/2/1 2/2/1 3/2/1
f 5/2/1 3/2/1 1/2/1
f 6/1/1 4/1/1 3/1/1
f 6/2/1 3/2/1 5/2/1
f 7/2/1 2/2/1 4/2/1
f 7/1/1 4/1/1 6/1/1
f 8/2/1 2/2/1 7/2/1
f 9/2/2 10/2/2 11/2/2
f 11/2/2 10/2/2 12/2/2
f 9/2/2 11/2/2 13/2/2
f 11/1/2 12/1/2 14/1/2
f 13/2/2 11/2/2 14/2/2
f 12/2/2 10/2/2 15/2/2
f 14/1/2 12/1/2 15/1/2
f 15/2/2 10/2/2 16/2/2
f 19/2/3 18/2/3 17/2/3
f 20/2/3 18/2/3 19/2/3
f 21/2/4 22/2/4 23/2/4
f 23/2/4 22/2/4 24/2/4
f 27/2/5 26/2/5 25/2/5
f 28/2/5 26/2/5 27/2/5
f 29/2/6 30/2/6 31/2/6
f 31/2/6 30/2/6 32/2/6
f 32/2/6 30/2/6 33/2/6
f 33/2/6 30/2/6 34/2/6
f 29/2/6 31/2/6 35/2/6
f 31/1/6 32/1/6 36/1/6
f 35/2/6 31/2/6 36/2/6
f 36/1/6 32/1/6 37/1/6
f 32/2/6 33/2/6 38/2/6
f 37/1/6 32/1/6 38/1/6
f 33/1/6 34/1/6 39/1/6
f 38/2/6 33/2/6 39/2/6
f 39/1/6 34/1/6 40/1/6
f 34/2/6 30/2/6 41/2/6
f 40/1/6 34/1/6 41/1/6
f 41/2/6 30/2/6 42/2/6
f 36/1/6 37/1/6 43/1/6
f 35/1/6 36/1/6 43/1/6
f 39/2/6 40/2/6 44/2/6
f 43/1/6 37/1/6 44/1/6
f 37/2/6 38/2/6 44/2/6
f 38/2/6 39/2/6 44/2/6
f 44/2/6 40/2/6 45/2/6
f 45/2/6 40/2/6 46/2/6
f 40/1/6 41/1/6 47/1/6
f 46/2/6 40/2/6 47/2/6
f 41/1/6 42/1/6 47/1/6
f 47/1/6 42/1/6 48/1/6
f 35/1/6 43/1/6 49/1/6
f 44/2/6 45/2/6 49/2/6
f 43/2/6 44/2/6 49/2/6
f 49/2/6 45/2/6 50/2/6
f 45/1/6 46/1/6 51/1/6
f 50/2/6 45/2/6 51/2/6
f 47/2/6 48/2/6 52/2/6
f 51/1/6 46/1/6 52/1/6
f 46/2/6 47/2/6 52/2/6
f 52/2/6 48/2/6 53/2/6
f 48/1/6 42/1/6 54/1/6
f 53/2/6 48/2/6 54/2/6
f 49/1/6 50/1/6 55/1/6
f 35/1/6 49/1/6 55/1/6
f 55/1/6 50/1/6 56/1/6
f 52/2/6 53/2/6 57/2/6
f 56/1/6 50/1/6 57/1/6
f 50/2/6 51/2/6 57/2/6
f 51/2/6 52/2/6 57/2/6
f 57/2/6 53/2/6 58/2/6
f 58/2/6 53/2/6 59/2/6
f 53/1/6 54/1/6 60/1/6
f 59/2/6 53/2/6 60/2/6
f 54/1/6 42/1/6 61/1/6
f 60/1/6 54/1/6 61/1/6
f 61/1/6 42/1/6 62/1/6
f 55/2/6 56/2/6 63/2/6
f 56/1/6 57/1/6 63/1/6
f 57/1/6 58/1/6 63/1/6
f 58/2/6 59/2/6 64/2/6
f 63/1/6 58/1/6 64/1/6
f 59/1/6 60/1/6 65/1/6
f 64/2/6 59/2/6 65/2/6
f 60/1/6 61/1/6 65/1/6
f 61/2/6 62/2/6 66/2/6
f 65/1/6 61/1/6 66/1/6
f 63/2/6 64/2/6 67/2/6
f 55/2/6 63/2/6 67/2/6
f 65/2/6 66/2/6 67/2/6
f 64/2/6 65/2/6 67/2/6
f 66/2/6 62/2/6 68/2/6
f 67/2/6 66/2/6 68/2/6
