# MagicaVoxel @ Ephtracy

# group
o 

# material
mtllib corner.mtl
usemtl palette

# normals
vn -1 0 0
vn 1 0 0
vn 0 0 1
vn 0 0 -1
vn 0 -1 0
vn 0 1 0

# texcoords
vt 0.0605469 0.5
vt 0.185547 0.5
vt 0.248047 0.5

# verts
v -0.3 0 0.3
v -0.3 0 0.2
v -0.3 0 -0.2
v -0.3 0 -0.3
v -0.3 0 -0.7
v -0.3 0 -0.8
v -0.3 0 -1.2
v -0.3 0 -1.3
v -0.3 0.1 0.3
v -0.3 0.1 0.2
v -0.3 0.1 -0.2
v -0.3 0.1 -0.3
v -0.3 0.1 -0.7
v -0.3 0.1 -0.8
v -0.3 0.1 -1.2
v -0.3 0.1 -1.3
v -0.3 0.2 0.3
v -0.3 0.2 0.2
v -0.3 0.2 -0.2
v -0.3 0.2 -0.3
v -0.3 0.2 -0.7
v -0.3 0.2 -0.8
v -0.3 0.2 -1.2
v -0.3 0.2 -1.3
v -0.3 0.3 0.3
v -0.3 0.3 0.2
v -0.3 0.3 -0.2
v -0.3 0.3 -0.3
v -0.3 0.3 -0.7
v -0.3 0.3 -0.8
v -0.3 0.3 -1.2
v -0.3 0.3 -1.3
v -0.2 0 0.2
v -0.2 0 -0.2
v -0.2 0 -0.3
v -0.2 0 -0.7
v -0.2 0 -0.8
v -0.2 0 -1.2
v -0.2 0 -1.3
v -0.2 0 -1.6
v -0.2 0.1 0.2
v -0.2 0.1 -0.2
v -0.2 0.1 -0.3
v -0.2 0.1 -0.7
v -0.2 0.1 -0.8
v -0.2 0.1 -1.2
v -0.2 0.1 -1.3
v -0.2 0.1 -1.6
v 0.2 0 0.3
v 0.2 0 0.2
v 0.2 0.1 0.3
v 0.2 0.1 0.2
v 0.2 0.1 -0.2
v 0.2 0.1 -0.3
v 0.2 0.1 -0.7
v 0.2 0.1 -0.8
v 0.2 0.1 -1.2
v 0.2 0.1 -1.3
v 0.2 0.2 0.3
v 0.2 0.2 0.2
v 0.2 0.2 -0.2
v 0.2 0.2 -0.3
v 0.2 0.2 -0.7
v 0.2 0.2 -0.8
v 0.2 0.2 -1.2
v 0.2 0.2 -1.3
v 0.2 0.3 0.3
v 0.2 0.3 0.2
v 0.2 0.3 -0.2
v 0.2 0.3 -0.3
v 0.2 0.3 -0.7
v 0.2 0.3 -0.8
v 0.2 0.3 -1.2
v 0.2 0.3 -1.3
v 0.7 0 0.3
v 0.7 0 0.2
v 0.7 0 -0.2
v 0.7 0 -0.3
v 0.7 0.1 0.3
v 0.7 0.1 0.2
v 0.7 0.1 -0.2
v 0.7 0.1 -0.3
v 0.7 0.2 0.3
v 0.7 0.2 0.2
v 0.7 0.2 -0.2
v 0.7 0.2 -0.3
v 0.7 0.3 0.3
v 0.7 0.3 0.2
v 0.7 0.3 -0.2
v 0.7 0.3 -0.3
v 1.2 0 0.3
v 1.2 0 0.2
v 1.2 0 -0.2
v 1.2 0 -0.3
v 1.2 0.1 0.3
v 1.2 0.1 0.2
v 1.2 0.1 -0.2
v 1.2 0.1 -0.3
v 1.2 0.2 0.3
v 1.2 0.2 0.2
v 1.2 0.2 -0.2
v 1.2 0.2 -0.3
v 1.2 0.3 0.3
v 1.2 0.3 0.2
v 1.2 0.3 -0.2
v 1.2 0.3 -0.3
v -0.2 0 0.3
v -0.2 0 0.2
v -0.2 0.1 0.3
v -0.2 0.1 0.2
v -0.2 0.1 -0.2
v -0.2 0.1 -0.3
v -0.2 0.1 -0.7
v -0.2 0.1 -0.8
v -0.2 0.1 -1.2
v -0.2 0.1 -1.3
v -0.2 0.2 0.3
v -0.2 0.2 0.2
v -0.2 0.2 -0.2
v -0.2 0.2 -0.3
v -0.2 0.2 -0.7
v -0.2 0.2 -0.8
v -0.2 0.2 -1.2
v -0.2 0.2 -1.3
v -0.2 0.3 0.3
v -0.2 0.3 0.2
v -0.2 0.3 -0.2
v -0.2 0.3 -0.3
v -0.2 0.3 -0.7
v -0.2 0.3 -0.8
v -0.2 0.3 -1.2
v -0.2 0.3 -1.3
v 0.2 0 -0.3
v 0.2 0 -0.7
v 0.2 0 -0.8
v 0.2 0 -1.2
v 0.2 0 -1.3
v 0.2 0 -1.6
v 0.2 0.1 -0.3
v 0.2 0.1 -0.7
v 0.2 0.1 -0.8
v 0.2 0.1 -1.2
v 0.2 0.1 -1.3
v 0.2 0.1 -1.6
v 0.3 0 0.3
v 0.3 0 0.2
v 0.3 0 -0.2
v 0.3 0 -0.3
v 0.3 0 -0.7
v 0.3 0 -0.8
v 0.3 0 -1.2
v 0.3 0 -1.3
v 0.3 0.1 0.3
v 0.3 0.1 0.2
v 0.3 0.1 -0.2
v 0.3 0.1 -0.3
v 0.3 0.1 -0.7
v 0.3 0.1 -0.8
v 0.3 0.1 -1.2
v 0.3 0.1 -1.3
v 0.3 0.2 0.3
v 0.3 0.2 0.2
v 0.3 0.2 -0.2
v 0.3 0.2 -0.3
v 0.3 0.2 -0.7
v 0.3 0.2 -0.8
v 0.3 0.2 -1.2
v 0.3 0.2 -1.3
v 0.3 0.3 0.3
v 0.3 0.3 0.2
v 0.3 0.3 -0.2
v 0.3 0.3 -0.3
v 0.3 0.3 -0.7
v 0.3 0.3 -0.8
v 0.3 0.3 -1.2
v 0.3 0.3 -1.3
v 0.8 0 0.3
v 0.8 0 0.2
v 0.8 0 -0.2
v 0.8 0 -0.3
v 0.8 0.1 0.3
v 0.8 0.1 0.2
v 0.8 0.1 -0.2
v 0.8 0.1 -0.3
v 0.8 0.2 0.3
v 0.8 0.2 0.2
v 0.8 0.2 -0.2
v 0.8 0.2 -0.3
v 0.8 0.3 0.3
v 0.8 0.3 0.2
v 0.8 0.3 -0.2
v 0.8 0.3 -0.3
v 1.3 0 0.3
v 1.3 0 0.2
v 1.3 0 -0.2
v 1.3 0 -0.3
v 1.3 0.1 0.3
v 1.3 0.1 0.2
v 1.3 0.1 -0.2
v 1.3 0.1 -0.3
v 1.3 0.2 0.3
v 1.3 0.2 0.2
v 1.3 0.2 -0.2
v 1.3 0.2 -0.3
v 1.3 0.3 0.3
v 1.3 0.3 0.2
v 1.3 0.3 -0.2
v 1.3 0.3 -0.3
v 1.6 0 0.2
v 1.6 0 0.1
v 1.6 0 -0.1
v 1.6 0 -0.2
v 1.6 0.1 0.2
v 1.6 0.1 0.1
v 1.6 0.1 -0.1
v 1.6 0.1 -0.2
v -0.3 0 0.3
v -0.3 0.1 0.3
v -0.3 0.2 0.3
v -0.3 0.3 0.3
v -0.2 0 0.3
v -0.2 0.1 0.3
v -0.2 0.2 0.3
v -0.2 0.3 0.3
v 0.2 0 0.3
v 0.2 0.1 0.3
v 0.2 0.2 0.3
v 0.2 0.3 0.3
v 0.3 0 0.3
v 0.3 0.1 0.3
v 0.3 0.2 0.3
v 0.3 0.3 0.3
v 0.7 0 0.3
v 0.7 0.1 0.3
v 0.7 0.2 0.3
v 0.7 0.3 0.3
v 0.8 0 0.3
v 0.8 0.1 0.3
v 0.8 0.2 0.3
v 0.8 0.3 0.3
v 1.2 0 0.3
v 1.2 0.1 0.3
v 1.2 0.2 0.3
v 1.2 0.3 0.3
v 1.3 0 0.3
v 1.3 0.1 0.3
v 1.3 0.2 0.3
v 1.3 0.3 0.3
v -0.2 0 0.2
v -0.2 0.1 0.2
v 0.2 0 0.2
v 0.2 0.1 0.2
v 0.3 0 0.2
v 0.3 0.1 0.2
v 0.7 0 0.2
v 0.7 0.1 0.2
v 0.8 0 0.2
v 0.8 0.1 0.2
v 1.2 0 0.2
v 1.2 0.1 0.2
v 1.3 0 0.2
v 1.3 0.1 0.2
v 1.6 0 0.2
v 1.6 0.1 0.2
v -0.3 0 -0.2
v -0.3 0.1 -0.2
v -0.3 0.2 -0.2
v -0.3 0.3 -0.2
v -0.2 0 -0.2
v -0.2 0.1 -0.2
v -0.2 0.2 -0.2
v -0.2 0.3 -0.2
v 0.2 0.1 -0.2
v 0.2 0.2 -0.2
v 0.2 0.3 -0.2
v 0.3 0.1 -0.2
v 0.3 0.2 -0.2
v 0.3 0.3 -0.2
v 0.7 0.1 -0.2
v 0.7 0.2 -0.2
v 0.7 0.3 -0.2
v 0.8 0.1 -0.2
v 0.8 0.2 -0.2
v 0.8 0.3 -0.2
v 1.2 0.1 -0.2
v 1.2 0.2 -0.2
v 1.2 0.3 -0.2
v 1.3 0.1 -0.2
v 1.3 0.2 -0.2
v 1.3 0.3 -0.2
v -0.3 0 -0.7
v -0.3 0.1 -0.7
v -0.3 0.2 -0.7
v -0.3 0.3 -0.7
v -0.2 0 -0.7
v -0.2 0.1 -0.7
v -0.2 0.2 -0.7
v -0.2 0.3 -0.7
v 0.2 0 -0.7
v 0.2 0.1 -0.7
v 0.2 0.2 -0.7
v 0.2 0.3 -0.7
v 0.3 0 -0.7
v 0.3 0.1 -0.7
v 0.3 0.2 -0.7
v 0.3 0.3 -0.7
v -0.3 0 -1.2
v -0.3 0.1 -1.2
v -0.3 0.2 -1.2
v -0.3 0.3 -1.2
v -0.2 0 -1.2
v -0.2 0.1 -1.2
v -0.2 0.2 -1.2
v -0.2 0.3 -1.2
v 0.2 0 -1.2
v 0.2 0.1 -1.2
v 0.2 0.2 -1.2
v 0.2 0.3 -1.2
v 0.3 0 -1.2
v 0.3 0.1 -1.2
v 0.3 0.2 -1.2
v 0.3 0.3 -1.2
v -0.3 0 0.2
v -0.3 0.1 0.2
v -0.3 0.2 0.2
v -0.3 0.3 0.2
v -0.2 0 0.2
v -0.2 0.1 0.2
v -0.2 0.2 0.2
v -0.2 0.3 0.2
v 0.2 0.1 0.2
v 0.2 0.2 0.2
v 0.2 0.3 0.2
v 0.3 0.1 0.2
v 0.3 0.2 0.2
v 0.3 0.3 0.2
v 0.7 0.1 0.2
v 0.7 0.2 0.2
v 0.7 0.3 0.2
v 0.8 0.1 0.2
v 0.8 0.2 0.2
v 0.8 0.3 0.2
v 1.2 0.1 0.2
v 1.2 0.2 0.2
v 1.2 0.3 0.2
v 1.3 0.1 0.2
v 1.3 0.2 0.2
v 1.3 0.3 0.2
v 0.3 0 -0.2
v 0.3 0.1 -0.2
v 0.7 0 -0.2
v 0.7 0.1 -0.2
v 0.8 0 -0.2
v 0.8 0.1 -0.2
v 1.2 0 -0.2
v 1.2 0.1 -0.2
v 1.3 0 -0.2
v 1.3 0.1 -0.2
v 1.6 0 -0.2
v 1.6 0.1 -0.2
v -0.3 0 -0.3
v -0.3 0.1 -0.3
v -0.3 0.2 -0.3
v -0.3 0.3 -0.3
v -0.2 0 -0.3
v -0.2 0.1 -0.3
v -0.2 0.2 -0.3
v -0.2 0.3 -0.3
v 0.2 0 -0.3
v 0.2 0.1 -0.3
v 0.2 0.2 -0.3
v 0.2 0.3 -0.3
v 0.3 0 -0.3
v 0.3 0.1 -0.3
v 0.3 0.2 -0.3
v 0.3 0.3 -0.3
v 0.7 0 -0.3
v 0.7 0.1 -0.3
v 0.7 0.2 -0.3
v 0.7 0.3 -0.3
v 0.8 0 -0.3
v 0.8 0.1 -0.3
v 0.8 0.2 -0.3
v 0.8 0.3 -0.3
v 1.2 0 -0.3
v 1.2 0.1 -0.3
v 1.2 0.2 -0.3
v 1.2 0.3 -0.3
v 1.3 0 -0.3
v 1.3 0.1 -0.3
v 1.3 0.2 -0.3
v 1.3 0.3 -0.3
v -0.3 0 -0.8
v -0.3 0.1 -0.8
v -0.3 0.2 -0.8
v -0.3 0.3 -0.8
v -0.2 0 -0.8
v -0.2 0.1 -0.8
v -0.2 0.2 -0.8
v -0.2 0.3 -0.8
v 0.2 0 -0.8
v 0.2 0.1 -0.8
v 0.2 0.2 -0.8
v 0.2 0.3 -0.8
v 0.3 0 -0.8
v 0.3 0.1 -0.8
v 0.3 0.2 -0.8
v 0.3 0.3 -0.8
v -0.3 0 -1.3
v -0.3 0.1 -1.3
v -0.3 0.2 -1.3
v -0.3 0.3 -1.3
v -0.2 0 -1.3
v -0.2 0.1 -1.3
v -0.2 0.2 -1.3
v -0.2 0.3 -1.3
v 0.2 0 -1.3
v 0.2 0.1 -1.3
v 0.2 0.2 -1.3
v 0.2 0.3 -1.3
v 0.3 0 -1.3
v 0.3 0.1 -1.3
v 0.3 0.2 -1.3
v 0.3 0.3 -1.3
v -0.2 0 -1.6
v -0.2 0.1 -1.6
v -0.1 0 -1.6
v -0.1 0.1 -1.6
v 0.1 0 -1.6
v 0.1 0.1 -1.6
v 0.2 0 -1.6
v 0.2 0.1 -1.6
v -0.3 0 0.3
v -0.2 0 0.3
v 0.2 0 0.3
v 0.3 0 0.3
v 0.7 0 0.3
v 0.8 0 0.3
v 1.2 0 0.3
v 1.3 0 0.3
v -0.3 0 0.2
v -0.2 0 0.2
v 0.2 0 0.2
v 0.3 0 0.2
v 0.7 0 0.2
v 0.8 0 0.2
v 1.2 0 0.2
v 1.3 0 0.2
v 1.6 0 0.2
v -0.1 0 0.1
v 1.6 0 0.1
v 0.1 0 -0.1
v 1.6 0 -0.1
v -0.3 0 -0.2
v -0.2 0 -0.2
v 0.3 0 -0.2
v 0.7 0 -0.2
v 0.8 0 -0.2
v 1.2 0 -0.2
v 1.3 0 -0.2
v 1.6 0 -0.2
v -0.3 0 -0.3
v -0.2 0 -0.3
v 0.2 0 -0.3
v 0.3 0 -0.3
v 0.7 0 -0.3
v 0.8 0 -0.3
v 1.2 0 -0.3
v 1.3 0 -0.3
v -0.3 0 -0.7
v -0.2 0 -0.7
v 0.2 0 -0.7
v 0.3 0 -0.7
v -0.3 0 -0.8
v -0.2 0 -0.8
v 0.2 0 -0.8
v 0.3 0 -0.8
v -0.3 0 -1.2
v -0.2 0 -1.2
v 0.2 0 -1.2
v 0.3 0 -1.2
v -0.3 0 -1.3
v -0.2 0 -1.3
v 0.2 0 -1.3
v 0.3 0 -1.3
v -0.2 0 -1.6
v -0.1 0 -1.6
v 0.1 0 -1.6
v 0.2 0 -1.6
v -0.2 0.1 0.2
v 0.2 0.1 0.2
v 0.3 0.1 0.2
v 0.7 0.1 0.2
v 0.8 0.1 0.2
v 1.2 0.1 0.2
v 1.3 0.1 0.2
v 1.6 0.1 0.2
v -0.1 0.1 0.1
v 1.6 0.1 0.1
v 0.1 0.1 -0.1
v 1.6 0.1 -0.1
v -0.2 0.1 -0.2
v 0.2 0.1 -0.2
v 0.3 0.1 -0.2
v 0.7 0.1 -0.2
v 0.8 0.1 -0.2
v 1.2 0.1 -0.2
v 1.3 0.1 -0.2
v 1.6 0.1 -0.2
v -0.2 0.1 -0.3
v 0.2 0.1 -0.3
v -0.2 0.1 -0.7
v 0.2 0.1 -0.7
v -0.2 0.1 -0.8
v 0.2 0.1 -0.8
v -0.2 0.1 -1.2
v 0.2 0.1 -1.2
v -0.2 0.1 -1.3
v 0.2 0.1 -1.3
v -0.2 0.1 -1.6
v -0.1 0.1 -1.6
v 0.1 0.1 -1.6
v 0.2 0.1 -1.6
v -0.3 0.3 0.3
v -0.2 0.3 0.3
v 0.2 0.3 0.3
v 0.3 0.3 0.3
v 0.7 0.3 0.3
v 0.8 0.3 0.3
v 1.2 0.3 0.3
v 1.3 0.3 0.3
v -0.3 0.3 0.2
v -0.2 0.3 0.2
v 0.2 0.3 0.2
v 0.3 0.3 0.2
v 0.7 0.3 0.2
v 0.8 0.3 0.2
v 1.2 0.3 0.2
v 1.3 0.3 0.2
v -0.3 0.3 -0.2
v -0.2 0.3 -0.2
v 0.2 0.3 -0.2
v 0.3 0.3 -0.2
v 0.7 0.3 -0.2
v 0.8 0.3 -0.2
v 1.2 0.3 -0.2
v 1.3 0.3 -0.2
v -0.3 0.3 -0.3
v -0.2 0.3 -0.3
v 0.2 0.3 -0.3
v 0.3 0.3 -0.3
v 0.7 0.3 -0.3
v 0.8 0.3 -0.3
v 1.2 0.3 -0.3
v 1.3 0.3 -0.3
v -0.3 0.3 -0.7
v -0.2 0.3 -0.7
v 0.2 0.3 -0.7
v 0.3 0.3 -0.7
v -0.3 0.3 -0.8
v -0.2 0.3 -0.8
v 0.2 0.3 -0.8
v 0.3 0.3 -0.8
v -0.3 0.3 -1.2
v -0.2 0.3 -1.2
v 0.2 0.3 -1.2
v 0.3 0.3 -1.2
v -0.3 0.3 -1.3
v -0.2 0.3 -1.3
v 0.2 0.3 -1.3
v 0.3 0.3 -1.3

# faces
f 9/2/1 2/2/1 1/2/1
f 10/2/1 2/2/1 9/2/1
f 11/2/1 4/2/1 3/2/1
f 12/2/1 4/2/1 11/2/1
f 13/2/1 6/2/1 5/2/1
f 14/2/1 6/2/1 13/2/1
f 15/2/1 8/2/1 7/2/1
f 16/2/1 8/2/1 15/2/1
f 17/1/1 10/1/1 9/1/1
f 18/1/1 10/1/1 17/1/1
f 19/1/1 12/1/1 11/1/1
f 20/1/1 12/1/1 19/1/1
f 21/1/1 14/1/1 13/1/1
f 22/1/1 14/1/1 21/1/1
f 23/1/1 16/1/1 15/1/1
f 24/1/1 16/1/1 23/1/1
f 25/2/1 18/2/1 17/2/1
f 26/2/1 18/2/1 25/2/1
f 27/2/1 20/2/1 19/2/1
f 28/2/1 20/2/1 27/2/1
f 29/2/1 22/2/1 21/2/1
f 30/2/1 22/2/1 29/2/1
f 31/2/1 24/2/1 23/2/1
f 32/2/1 24/2/1 31/2/1
f 41/2/1 34/2/1 33/2/1
f 42/2/1 34/2/1 41/2/1
f 43/2/1 36/2/1 35/2/1
f 44/2/1 36/2/1 43/2/1
f 45/2/1 38/2/1 37/2/1
f 46/2/1 38/2/1 45/2/1
f 47/2/1 40/2/1 39/2/1
f 48/2/1 40/2/1 47/2/1
f 51/2/1 50/2/1 49/2/1
f 52/2/1 50/2/1 51/2/1
f 59/1/1 52/1/1 51/1/1
f 60/1/1 52/1/1 59/1/1
f 61/1/1 54/1/1 53/1/1
f 62/1/1 54/1/1 61/1/1
f 63/1/1 56/1/1 55/1/1
f 64/1/1 56/1/1 63/1/1
f 65/1/1 58/1/1 57/1/1
f 66/1/1 58/1/1 65/1/1
f 67/2/1 60/2/1 59/2/1
f 68/2/1 60/2/1 67/2/1
f 69/2/1 62/2/1 61/2/1
f 70/2/1 62/2/1 69/2/1
f 71/2/1 64/2/1 63/2/1
f 72/2/1 64/2/1 71/2/1
f 73/2/1 66/2/1 65/2/1
f 74/2/1 66/2/1 73/2/1
f 79/2/1 76/2/1 75/2/1
f 80/2/1 76/2/1 79/2/1
f 81/2/1 78/2/1 77/2/1
f 82/2/1 78/2/1 81/2/1
f 83/1/1 80/1/1 79/1/1
f 84/1/1 80/1/1 83/1/1
f 85/1/1 82/1/1 81/1/1
f 86/1/1 82/1/1 85/1/1
f 87/2/1 84/2/1 83/2/1
f 88/2/1 84/2/1 87/2/1
f 89/2/1 86/2/1 85/2/1
f 90/2/1 86/2/1 89/2/1
f 95/2/1 92/2/1 91/2/1
f 96/2/1 92/2/1 95/2/1
f 97/2/1 94/2/1 93/2/1
f 98/2/1 94/2/1 97/2/1
f 99/1/1 96/1/1 95/1/1
f 100/1/1 96/1/1 99/1/1
f 101/1/1 98/1/1 97/1/1
f 102/1/1 98/1/1 101/1/1
f 103/2/1 100/2/1 99/2/1
f 104/2/1 100/2/1 103/2/1
f 105/2/1 102/2/1 101/2/1
f 106/2/1 102/2/1 105/2/1
f 107/2/2 108/2/2 109/2/2
f 109/2/2 108/2/2 110/2/2
f 109/1/2 110/1/2 117/1/2
f 117/1/2 110/1/2 118/1/2
f 111/1/2 112/1/2 119/1/2
f 119/1/2 112/1/2 120/1/2
f 113/1/2 114/1/2 121/1/2
f 121/1/2 114/1/2 122/1/2
f 115/1/2 116/1/2 123/1/2
f 123/1/2 116/1/2 124/1/2
f 117/2/2 118/2/2 125/2/2
f 125/2/2 118/2/2 126/2/2
f 119/2/2 120/2/2 127/2/2
f 127/2/2 120/2/2 128/2/2
f 121/2/2 122/2/2 129/2/2
f 129/2/2 122/2/2 130/2/2
f 123/2/2 124/2/2 131/2/2
f 131/2/2 124/2/2 132/2/2
f 133/2/2 134/2/2 139/2/2
f 139/2/2 134/2/2 140/2/2
f 135/2/2 136/2/2 141/2/2
f 141/2/2 136/2/2 142/2/2
f 137/2/2 138/2/2 143/2/2
f 143/2/2 138/2/2 144/2/2
f 145/2/2 146/2/2 153/2/2
f 153/2/2 146/2/2 154/2/2
f 147/2/2 148/2/2 155/2/2
f 155/2/2 148/2/2 156/2/2
f 149/2/2 150/2/2 157/2/2
f 157/2/2 150/2/2 158/2/2
f 151/2/2 152/2/2 159/2/2
f 159/2/2 152/2/2 160/2/2
f 153/1/2 154/1/2 161/1/2
f 161/1/2 154/1/2 162/1/2
f 155/1/2 156/1/2 163/1/2
f 163/1/2 156/1/2 164/1/2
f 157/1/2 158/1/2 165/1/2
f 165/1/2 158/1/2 166/1/2
f 159/1/2 160/1/2 167/1/2
f 167/1/2 160/1/2 168/1/2
f 161/2/2 162/2/2 169/2/2
f 169/2/2 162/2/2 170/2/2
f 163/2/2 164/2/2 171/2/2
f 171/2/2 164/2/2 172/2/2
f 165/2/2 166/2/2 173/2/2
f 173/2/2 166/2/2 174/2/2
f 167/2/2 168/2/2 175/2/2
f 175/2/2 168/2/2 176/2/2
f 177/2/2 178/2/2 181/2/2
f 181/2/2 178/2/2 182/2/2
f 179/2/2 180/2/2 183/2/2
f 183/2/2 180/2/2 184/2/2
f 181/1/2 182/1/2 185/1/2
f 185/1/2 182/1/2 186/1/2
f 183/1/2 184/1/2 187/1/2
f 187/1/2 184/1/2 188/1/2
f 185/2/2 186/2/2 189/2/2
f 189/2/2 186/2/2 190/2/2
f 187/2/2 188/2/2 191/2/2
f 191/2/2 188/2/2 192/2/2
f 193/2/2 194/2/2 197/2/2
f 197/2/2 194/2/2 198/2/2
f 195/2/2 196/2/2 199/2/2
f 199/2/2 196/2/2 200/2/2
f 197/1/2 198/1/2 201/1/2
f 201/1/2 198/1/2 202/1/2
f 199/1/2 200/1/2 203/1/2
f 203/1/2 200/1/2 204/1/2
f 201/2/2 202/2/2 205/2/2
f 205/2/2 202/2/2 206/2/2
f 203/2/2 204/2/2 207/2/2
f 207/2/2 204/2/2 208/2/2
f 209/2/2 210/2/2 213/2/2
f 210/3/2 211/3/2 214/3/2
f 213/2/2 210/2/2 214/2/2
f 211/2/2 212/2/2 215/2/2
f 214/3/2 211/3/2 215/3/2
f 215/2/2 212/2/2 216/2/2
f 221/2/3 218/2/3 217/2/3
f 222/1/3 219/1/3 218/1/3
f 222/2/3 218/2/3 221/2/3
f 223/2/3 220/2/3 219/2/3
f 223/1/3 219/1/3 222/1/3
f 224/2/3 220/2/3 223/2/3
f 229/2/3 226/2/3 225/2/3
f 230/1/3 227/1/3 226/1/3
f 230/2/3 226/2/3 229/2/3
f 231/2/3 228/2/3 227/2/3
f 231/1/3 227/1/3 230/1/3
f 232/2/3 228/2/3 231/2/3
f 237/2/3 234/2/3 233/2/3
f 238/1/3 235/1/3 234/1/3
f 238/2/3 234/2/3 237/2/3
f 239/2/3 236/2/3 235/2/3
f 239/1/3 235/1/3 238/1/3
f 240/2/3 236/2/3 239/2/3
f 245/2/3 242/2/3 241/2/3
f 246/1/3 243/1/3 242/1/3
f 246/2/3 242/2/3 245/2/3
f 247/2/3 244/2/3 243/2/3
f 247/1/3 243/1/3 246/1/3
f 248/2/3 244/2/3 247/2/3
f 251/2/3 250/2/3 249/2/3
f 252/2/3 250/2/3 251/2/3
f 255/2/3 254/2/3 253/2/3
f 256/2/3 254/2/3 255/2/3
f 259/2/3 258/2/3 257/2/3
f 260/2/3 258/2/3 259/2/3
f 263/2/3 262/2/3 261/2/3
f 264/2/3 262/2/3 263/2/3
f 269/2/3 266/2/3 265/2/3
f 270/1/3 267/1/3 266/1/3
f 270/2/3 266/2/3 269/2/3
f 271/2/3 268/2/3 267/2/3
f 271/1/3 267/1/3 270/1/3
f 272/2/3 268/2/3 271/2/3
f 276/1/3 274/1/3 273/1/3
f 277/2/3 275/2/3 274/2/3
f 277/1/3 274/1/3 276/1/3
f 278/2/3 275/2/3 277/2/3
f 282/1/3 280/1/3 279/1/3
f 283/2/3 281/2/3 280/2/3
f 283/1/3 280/1/3 282/1/3
f 284/2/3 281/2/3 283/2/3
f 288/1/3 286/1/3 285/1/3
f 289/2/3 287/2/3 286/2/3
f 289/1/3 286/1/3 288/1/3
f 290/2/3 287/2/3 289/2/3
f 295/2/3 292/2/3 291/2/3
f 296/1/3 293/1/3 292/1/3
f 296/2/3 292/2/3 295/2/3
f 297/2/3 294/2/3 293/2/3
f 297/1/3 293/1/3 296/1/3
f 298/2/3 294/2/3 297/2/3
f 303/2/3 300/2/3 299/2/3
f 304/1/3 301/1/3 300/1/3
f 304/2/3 300/2/3 303/2/3
f 305/2/3 302/2/3 301/2/3
f 305/1/3 301/1/3 304/1/3
f 306/2/3 302/2/3 305/2/3
f 311/2/3 308/2/3 307/2/3
f 312/1/3 309/1/3 308/1/3
f 312/2/3 308/2/3 311/2/3
f 313/2/3 310/2/3 309/2/3
f 313/1/3 309/1/3 312/1/3
f 314/2/3 310/2/3 313/2/3
f 319/2/3 316/2/3 315/2/3
f 320/1/3 317/1/3 316/1/3
f 320/2/3 316/2/3 319/2/3
f 321/2/3 318/2/3 317/2/3
f 321/1/3 317/1/3 320/1/3
f 322/2/3 318/2/3 321/2/3
f 323/2/4 324/2/4 327/2/4
f 324/1/4 325/1/4 328/1/4
f 327/2/4 324/2/4 328/2/4
f 325/2/4 326/2/4 329/2/4
f 328/1/4 325/1/4 329/1/4
f 329/2/4 326/2/4 330/2/4
f 331/1/4 332/1/4 334/1/4
f 332/2/4 333/2/4 335/2/4
f 334/1/4 332/1/4 335/1/4
f 335/2/4 333/2/4 336/2/4
f 337/1/4 338/1/4 340/1/4
f 338/2/4 339/2/4 341/2/4
f 340/1/4 338/1/4 341/1/4
f 341/2/4 339/2/4 342/2/4
f 343/1/4 344/1/4 346/1/4
f 344/2/4 345/2/4 347/2/4
f 346/1/4 344/1/4 347/1/4
f 347/2/4 345/2/4 348/2/4
f 349/2/4 350/2/4 351/2/4
f 351/2/4 350/2/4 352/2/4
f 353/2/4 354/2/4 355/2/4
f 355/2/4 354/2/4 356/2/4
f 357/2/4 358/2/4 359/2/4
f 359/2/4 358/2/4 360/2/4
f 361/2/4 362/2/4 365/2/4
f 362/1/4 363/1/4 366/1/4
f 365/2/4 362/2/4 366/2/4
f 363/2/4 364/2/4 367/2/4
f 366/1/4 363/1/4 367/1/4
f 367/2/4 364/2/4 368/2/4
f 369/2/4 370/2/4 373/2/4
f 370/1/4 371/1/4 374/1/4
f 373/2/4 370/2/4 374/2/4
f 371/2/4 372/2/4 375/2/4
f 374/1/4 371/1/4 375/1/4
f 375/2/4 372/2/4 376/2/4
f 377/2/4 378/2/4 381/2/4
f 378/1/4 379/1/4 382/1/4
f 381/2/4 378/2/4 382/2/4
f 379/2/4 380/2/4 383/2/4
f 382/1/4 379/1/4 383/1/4
f 383/2/4 380/2/4 384/2/4
f 385/2/4 386/2/4 389/2/4
f 386/1/4 387/1/4 390/1/4
f 389/2/4 386/2/4 390/2/4
f 387/2/4 388/2/4 391/2/4
f 390/1/4 387/1/4 391/1/4
f 391/2/4 388/2/4 392/2/4
f 393/2/4 394/2/4 397/2/4
f 394/1/4 395/1/4 398/1/4
f 397/2/4 394/2/4 398/2/4
f 395/2/4 396/2/4 399/2/4
f 398/1/4 395/1/4 399/1/4
f 399/2/4 396/2/4 400/2/4
f 401/2/4 402/2/4 405/2/4
f 402/1/4 403/1/4 406/1/4
f 405/2/4 402/2/4 406/2/4
f 403/2/4 404/2/4 407/2/4
f 406/1/4 403/1/4 407/1/4
f 407/2/4 404/2/4 408/2/4
f 409/2/4 410/2/4 413/2/4
f 410/1/4 411/1/4 414/1/4
f 413/2/4 410/2/4 414/2/4
f 411/2/4 412/2/4 415/2/4
f 414/1/4 411/1/4 415/1/4
f 415/2/4 412/2/4 416/2/4
f 417/2/4 418/2/4 421/2/4
f 418/1/4 419/1/4 422/1/4
f 421/2/4 418/2/4 422/2/4
f 419/2/4 420/2/4 423/2/4
f 422/1/4 419/1/4 423/1/4
f 423/2/4 420/2/4 424/2/4
f 425/2/4 426/2/4 427/2/4
f 427/2/4 426/2/4 428/2/4
f 427/3/4 428/3/4 429/3/4
f 429/3/4 428/3/4 430/3/4
f 429/2/4 430/2/4 431/2/4
f 431/2/4 430/2/4 432/2/4
f 441/2/5 434/2/5 433/2/5
f 442/2/5 434/2/5 441/2/5
f 443/2/5 436/2/5 435/2/5
f 444/2/5 436/2/5 443/2/5
f 445/2/5 438/2/5 437/2/5
f 446/2/5 438/2/5 445/2/5
f 447/2/5 440/2/5 439/2/5
f 448/2/5 440/2/5 447/2/5
f 450/2/5 446/2/5 445/2/5
f 450/2/5 449/2/5 448/2/5
f 450/2/5 448/2/5 447/2/5
f 450/2/5 447/2/5 446/2/5
f 450/2/5 445/2/5 444/2/5
f 450/2/5 444/2/5 443/2/5
f 450/2/5 443/2/5 442/2/5
f 451/2/5 449/2/5 450/2/5
f 452/3/5 451/3/5 450/3/5
f 453/3/5 451/3/5 452/3/5
f 455/2/5 450/2/5 442/2/5
f 456/2/5 453/2/5 452/2/5
f 457/2/5 453/2/5 456/2/5
f 458/2/5 453/2/5 457/2/5
f 459/2/5 453/2/5 458/2/5
f 460/2/5 453/2/5 459/2/5
f 461/2/5 453/2/5 460/2/5
f 462/2/5 455/2/5 454/2/5
f 463/2/5 450/2/5 455/2/5
f 463/2/5 455/2/5 462/2/5
f 464/2/5 456/2/5 452/2/5
f 465/2/5 456/2/5 464/2/5
f 466/2/5 458/2/5 457/2/5
f 467/2/5 458/2/5 466/2/5
f 468/2/5 460/2/5 459/2/5
f 469/2/5 460/2/5 468/2/5
f 471/2/5 450/2/5 463/2/5
f 472/2/5 464/2/5 452/2/5
f 474/2/5 471/2/5 470/2/5
f 475/2/5 450/2/5 471/2/5
f 475/2/5 471/2/5 474/2/5
f 476/2/5 473/2/5 472/2/5
f 476/2/5 472/2/5 452/2/5
f 477/2/5 473/2/5 476/2/5
f 479/2/5 450/2/5 475/2/5
f 480/2/5 476/2/5 452/2/5
f 482/2/5 479/2/5 478/2/5
f 483/2/5 450/2/5 479/2/5
f 483/2/5 479/2/5 482/2/5
f 484/2/5 481/2/5 480/2/5
f 484/2/5 480/2/5 452/2/5
f 485/2/5 481/2/5 484/2/5
f 486/2/5 450/2/5 483/2/5
f 487/3/5 452/3/5 450/3/5
f 487/2/5 450/2/5 486/2/5
f 488/2/5 484/2/5 452/2/5
f 488/3/5 452/3/5 487/3/5
f 489/2/5 484/2/5 488/2/5
f 490/2/6 491/2/6 498/2/6
f 496/2/6 497/2/6 498/2/6
f 495/2/6 496/2/6 498/2/6
f 494/2/6 495/2/6 498/2/6
f 493/2/6 494/2/6 498/2/6
f 492/2/6 493/2/6 498/2/6
f 491/2/6 492/2/6 498/2/6
f 498/2/6 497/2/6 499/2/6
f 498/3/6 499/3/6 500/3/6
f 500/3/6 499/3/6 501/3/6
f 490/2/6 498/2/6 502/2/6
f 500/2/6 501/2/6 503/2/6
f 503/2/6 501/2/6 504/2/6
f 504/2/6 501/2/6 505/2/6
f 505/2/6 501/2/6 506/2/6
f 506/2/6 501/2/6 507/2/6
f 507/2/6 501/2/6 508/2/6
f 508/2/6 501/2/6 509/2/6
f 502/2/6 498/2/6 510/2/6
f 500/2/6 503/2/6 511/2/6
f 510/2/6 498/2/6 512/2/6
f 500/2/6 511/2/6 513/2/6
f 512/2/6 498/2/6 514/2/6
f 500/2/6 513/2/6 515/2/6
f 514/2/6 498/2/6 516/2/6
f 500/2/6 515/2/6 517/2/6
f 516/2/6 498/2/6 518/2/6
f 500/2/6 517/2/6 519/2/6
f 518/2/6 498/2/6 520/2/6
f 498/3/6 500/3/6 521/3/6
f 520/2/6 498/2/6 521/2/6
f 500/2/6 519/2/6 522/2/6
f 521/3/6 500/3/6 522/3/6
f 522/2/6 519/2/6 523/2/6
f 524/2/6 525/2/6 532/2/6
f 532/2/6 525/2/6 533/2/6
f 526/2/6 527/2/6 534/2/6
f 534/2/6 527/2/6 535/2/6
f 528/2/6 529/2/6 536/2/6
f 536/2/6 529/2/6 537/2/6
f 530/2/6 531/2/6 538/2/6
f 538/2/6 531/2/6 539/2/6
f 540/2/6 541/2/6 548/2/6
f 548/2/6 541/2/6 549/2/6
f 542/2/6 543/2/6 550/2/6
f 550/2/6 543/2/6 551/2/6
f 544/2/6 545/2/6 552/2/6
f 552/2/6 545/2/6 553/2/6
f 546/2/6 547/2/6 554/2/6
f 554/2/6 547/2/6 555/2/6
f 556/2/6 557/2/6 560/2/6
f 560/2/6 557/2/6 561/2/6
f 558/2/6 559/2/6 562/2/6
f 562/2/6 559/2/6 563/2/6
f 564/2/6 565/2/6 568/2/6
f 568/2/6 565/2/6 569/2/6
f 566/2/6 567/2/6 570/2/6
f 570/2/6 567/2/6 571/2/6
