# MagicaVoxel @ Ephtracy

# group
o 

# material
mtllib RArm.mtl
usemtl palette

# normals
vn -1 0 0
vn 1 0 0
vn 0 0 1
vn 0 0 -1
vn 0 -1 0
vn 0 1 0

# texcoords
vt 0.326172 0.5
vt 0.708984 0.5
vt 0.744141 0.5
vt 0.806641 0.5
vt 0.869141 0.5
vt 0.892578 0.5
vt 0.931641 0.5
vt 0.986328 0.5
vt 0.994141 0.5

# verts
v -0.6 1.8 -0.1
v -0.6 1.8 -0.4
v -0.6 2.2 -0.1
v -0.6 2.2 -0.4
v -0.5 0.1 -0.3
v -0.5 0.1 -0.4
v -0.5 0.1 -0.5
v -0.5 0.8 -0.3
v -0.5 0.8 -0.4
v -0.5 0.8 -0.5
v -0.5 0.9 -0.3
v -0.5 0.9 -0.4
v -0.5 0.9 -0.5
v -0.5 1.6 -0.3
v -0.5 1.6 -0.4
v -0.5 1.6 -0.5
v -0.5 1.7 -0.2
v -0.5 1.7 -0.5
v -0.5 1.8 -0.2
v -0.5 1.8 -0.4
v -0.5 2.1 -0.4
v -0.5 2.1 -0.5
v -0.4 0 -0.3
v -0.4 0 -0.5
v -0.4 0.1 -0.2
v -0.4 0.1 -0.3
v -0.4 0.1 -0.4
v -0.4 0.1 -0.5
v -0.4 0.1 -0.6
v -0.4 0.8 -0.2
v -0.4 0.8 -0.3
v -0.4 0.8 -0.4
v -0.4 0.8 -0.5
v -0.4 0.8 -0.6
v -0.4 0.9 -0.2
v -0.4 0.9 -0.3
v -0.4 0.9 -0.4
v -0.4 0.9 -0.5
v -0.4 0.9 -0.6
v -0.4 1.6 -0.2
v -0.4 1.6 -0.3
v -0.4 1.6 -0.4
v -0.4 1.6 -0.5
v -0.4 1.6 -0.6
v -0.4 1.7 -0.3
v -0.4 1.7 -0.5
v -0.2 0 -0.3
v -0.2 0 -0.5
v -0.2 0.1 -0.2
v -0.2 0.1 -0.3
v -0.2 0.1 -0.4
v -0.2 0.1 -0.5
v -0.2 0.1 -0.6
v -0.2 0.8 -0.2
v -0.2 0.8 -0.3
v -0.2 0.8 -0.4
v -0.2 0.8 -0.5
v -0.2 0.8 -0.6
v -0.2 0.9 -0.2
v -0.2 0.9 -0.3
v -0.2 0.9 -0.4
v -0.2 0.9 -0.5
v -0.2 0.9 -0.6
v -0.2 1.6 -0.2
v -0.2 1.6 -0.3
v -0.2 1.6 -0.4
v -0.2 1.6 -0.5
v -0.2 1.6 -0.6
v -0.2 1.7 -0.3
v -0.2 1.7 -0.5
v -0.2 1.8 -0.1
v -0.2 1.8 -0.2
v -0.2 2.1 -0.2
v -0.2 2.1 -0.4
v -0.2 2.2 -0.1
v -0.2 2.2 -0.4
v -0.0999999 0.1 -0.3
v -0.0999999 0.1 -0.4
v -0.0999999 0.1 -0.5
v -0.0999999 0.8 -0.3
v -0.0999999 0.8 -0.4
v -0.0999999 0.8 -0.5
v -0.0999999 0.9 -0.3
v -0.0999999 0.9 -0.4
v -0.0999999 0.9 -0.5
v -0.0999999 1.6 -0.3
v -0.0999999 1.6 -0.4
v -0.0999999 1.6 -0.5
v -0.0999999 1.7 -0.2
v -0.0999999 1.7 -0.5
v -0.0999999 2.1 -0.2
v -0.0999999 2.1 -0.5
v -0.6 1.8 -0.1
v -0.6 2.2 -0.1
v -0.2 1.8 -0.1
v -0.2 2.2 -0.1
v -0.5 1.7 -0.2
v -0.5 1.8 -0.2
v -0.4 0.1 -0.2
v -0.4 0.8 -0.2
v -0.4 0.9 -0.2
v -0.4 1.6 -0.2
v -0.3 0.1 -0.2
v -0.3 0.8 -0.2
v -0.3 0.9 -0.2
v -0.3 1.6 -0.2
v -0.2 0.1 -0.2
v -0.2 0.8 -0.2
v -0.2 0.9 -0.2
v -0.2 1.6 -0.2
v -0.2 1.8 -0.2
v -0.2 2.1 -0.2
v -0.0999999 1.7 -0.2
v -0.0999999 2.1 -0.2
v -0.5 0.1 -0.3
v -0.5 0.8 -0.3
v -0.5 0.9 -0.3
v -0.5 1.6 -0.3
v -0.4 0 -0.3
v -0.4 0.1 -0.3
v -0.4 0.8 -0.3
v -0.4 0.9 -0.3
v -0.4 1.6 -0.3
v -0.4 1.7 -0.3
v -0.3 0.1 -0.3
v -0.3 0.8 -0.3
v -0.3 0.9 -0.3
v -0.3 1.6 -0.3
v -0.2 0 -0.3
v -0.2 0.1 -0.3
v -0.2 0.8 -0.3
v -0.2 0.9 -0.3
v -0.2 1.6 -0.3
v -0.2 1.7 -0.3
v -0.0999999 0.1 -0.3
v -0.0999999 0.8 -0.3
v -0.0999999 0.9 -0.3
v -0.0999999 1.6 -0.3
v -0.6 1.8 -0.4
v -0.6 2.2 -0.4
v -0.5 1.8 -0.4
v -0.5 2.1 -0.4
v -0.2 2.1 -0.4
v -0.2 2.2 -0.4
v -0.5 0.1 -0.5
v -0.5 0.8 -0.5
v -0.5 0.9 -0.5
v -0.5 1.6 -0.5
v -0.5 1.7 -0.5
v -0.5 2.1 -0.5
v -0.4 0 -0.5
v -0.4 0.1 -0.5
v -0.4 0.8 -0.5
v -0.4 0.9 -0.5
v -0.4 1.6 -0.5
v -0.4 1.7 -0.5
v -0.2 0 -0.5
v -0.2 0.1 -0.5
v -0.2 0.8 -0.5
v -0.2 0.9 -0.5
v -0.2 1.6 -0.5
v -0.2 1.7 -0.5
v -0.0999999 0.1 -0.5
v -0.0999999 0.8 -0.5
v -0.0999999 0.9 -0.5
v -0.0999999 1.6 -0.5
v -0.0999999 1.7 -0.5
v -0.0999999 2.1 -0.5
v -0.4 0.1 -0.6
v -0.4 0.8 -0.6
v -0.4 0.9 -0.6
v -0.4 1.6 -0.6
v -0.2 0.1 -0.6
v -0.2 0.8 -0.6
v -0.2 0.9 -0.6
v -0.2 1.6 -0.6
v -0.4 0 -0.3
v -0.2 0 -0.3
v -0.4 0 -0.5
v -0.2 0 -0.5
v -0.4 0.1 -0.2
v -0.3 0.1 -0.2
v -0.2 0.1 -0.2
v -0.5 0.1 -0.3
v -0.4 0.1 -0.3
v -0.3 0.1 -0.3
v -0.2 0.1 -0.3
v -0.0999999 0.1 -0.3
v -0.5 0.1 -0.4
v -0.4 0.1 -0.4
v -0.2 0.1 -0.4
v -0.0999999 0.1 -0.4
v -0.5 0.1 -0.5
v -0.4 0.1 -0.5
v -0.2 0.1 -0.5
v -0.0999999 0.1 -0.5
v -0.4 0.1 -0.6
v -0.2 0.1 -0.6
v -0.4 0.9 -0.2
v -0.3 0.9 -0.2
v -0.2 0.9 -0.2
v -0.5 0.9 -0.3
v -0.4 0.9 -0.3
v -0.3 0.9 -0.3
v -0.2 0.9 -0.3
v -0.0999999 0.9 -0.3
v -0.5 0.9 -0.4
v -0.4 0.9 -0.4
v -0.2 0.9 -0.4
v -0.0999999 0.9 -0.4
v -0.5 0.9 -0.5
v -0.4 0.9 -0.5
v -0.2 0.9 -0.5
v -0.0999999 0.9 -0.5
v -0.4 0.9 -0.6
v -0.2 0.9 -0.6
v -0.5 1.7 -0.2
v -0.0999999 1.7 -0.2
v -0.4 1.7 -0.3
v -0.2 1.7 -0.3
v -0.5 1.7 -0.5
v -0.4 1.7 -0.5
v -0.2 1.7 -0.5
v -0.0999999 1.7 -0.5
v -0.6 1.8 -0.1
v -0.2 1.8 -0.1
v -0.5 1.8 -0.2
v -0.2 1.8 -0.2
v -0.6 1.8 -0.4
v -0.5 1.8 -0.4
v -0.4 0.8 -0.2
v -0.3 0.8 -0.2
v -0.2 0.8 -0.2
v -0.5 0.8 -0.3
v -0.4 0.8 -0.3
v -0.3 0.8 -0.3
v -0.2 0.8 -0.3
v -0.0999999 0.8 -0.3
v -0.5 0.8 -0.4
v -0.4 0.8 -0.4
v -0.2 0.8 -0.4
v -0.0999999 0.8 -0.4
v -0.5 0.8 -0.5
v -0.4 0.8 -0.5
v -0.2 0.8 -0.5
v -0.0999999 0.8 -0.5
v -0.4 0.8 -0.6
v -0.2 0.8 -0.6
v -0.4 1.6 -0.2
v -0.3 1.6 -0.2
v -0.2 1.6 -0.2
v -0.5 1.6 -0.3
v -0.4 1.6 -0.3
v -0.3 1.6 -0.3
v -0.2 1.6 -0.3
v -0.0999999 1.6 -0.3
v -0.5 1.6 -0.4
v -0.4 1.6 -0.4
v -0.2 1.6 -0.4
v -0.0999999 1.6 -0.4
v -0.5 1.6 -0.5
v -0.4 1.6 -0.5
v -0.2 1.6 -0.5
v -0.0999999 1.6 -0.5
v -0.4 1.6 -0.6
v -0.2 1.6 -0.6
v -0.2 2.1 -0.2
v -0.0999999 2.1 -0.2
v -0.5 2.1 -0.4
v -0.2 2.1 -0.4
v -0.5 2.1 -0.5
v -0.0999999 2.1 -0.5
v -0.6 2.2 -0.1
v -0.2 2.2 -0.1
v -0.6 2.2 -0.4
v -0.2 2.2 -0.4

# faces
f 3/6/1 2/6/1 1/6/1
f 4/6/1 2/6/1 3/6/1
f 8/3/1 6/3/1 5/3/1
f 9/9/1 7/9/1 6/9/1
f 9/3/1 6/3/1 8/3/1
f 10/9/1 7/9/1 9/9/1
f 14/3/1 12/3/1 11/3/1
f 15/9/1 13/9/1 12/9/1
f 15/3/1 12/3/1 14/3/1
f 16/9/1 13/9/1 15/9/1
f 19/6/1 18/6/1 17/6/1
f 20/6/1 18/6/1 19/6/1
f 21/6/1 18/6/1 20/6/1
f 22/6/1 18/6/1 21/6/1
f 26/8/1 24/8/1 23/8/1
f 27/8/1 24/8/1 26/8/1
f 28/8/1 24/8/1 27/8/1
f 30/4/1 26/4/1 25/4/1
f 31/4/1 26/4/1 30/4/1
f 33/9/1 29/9/1 28/9/1
f 34/9/1 29/9/1 33/9/1
f 36/8/1 32/8/1 31/8/1
f 36/8/1 33/8/1 32/8/1
f 37/8/1 33/8/1 36/8/1
f 38/8/1 33/8/1 37/8/1
f 40/4/1 36/4/1 35/4/1
f 41/4/1 36/4/1 40/4/1
f 43/9/1 39/9/1 38/9/1
f 44/9/1 39/9/1 43/9/1
f 45/8/1 42/8/1 41/8/1
f 45/8/1 43/8/1 42/8/1
f 46/8/1 43/8/1 45/8/1
f 47/8/2 48/8/2 50/8/2
f 50/8/2 48/8/2 51/8/2
f 51/8/2 48/8/2 52/8/2
f 49/5/2 50/5/2 54/5/2
f 54/5/2 50/5/2 55/5/2
f 52/9/2 53/9/2 57/9/2
f 57/9/2 53/9/2 58/9/2
f 55/8/2 56/8/2 60/8/2
f 56/8/2 57/8/2 60/8/2
f 60/8/2 57/8/2 61/8/2
f 61/8/2 57/8/2 62/8/2
f 59/5/2 60/5/2 64/5/2
f 64/5/2 60/5/2 65/5/2
f 62/9/2 63/9/2 67/9/2
f 67/9/2 63/9/2 68/9/2
f 65/8/2 66/8/2 69/8/2
f 66/8/2 67/8/2 69/8/2
f 69/8/2 67/8/2 70/8/2
f 71/6/2 72/6/2 73/6/2
f 71/6/2 73/6/2 75/6/2
f 73/6/2 74/6/2 75/6/2
f 75/6/2 74/6/2 76/6/2
f 77/7/2 78/7/2 80/7/2
f 78/9/2 79/9/2 81/9/2
f 80/7/2 78/7/2 81/7/2
f 81/9/2 79/9/2 82/9/2
f 83/7/2 84/7/2 86/7/2
f 84/9/2 85/9/2 87/9/2
f 86/7/2 84/7/2 87/7/2
f 87/9/2 85/9/2 88/9/2
f 89/6/2 90/6/2 91/6/2
f 91/6/2 90/6/2 92/6/2
f 95/6/3 94/6/3 93/6/3
f 96/6/3 94/6/3 95/6/3
f 103/4/3 100/4/3 99/4/3
f 104/4/3 100/4/3 103/4/3
f 105/4/3 102/4/3 101/4/3
f 106/4/3 102/4/3 105/4/3
f 107/5/3 104/5/3 103/5/3
f 108/5/3 104/5/3 107/5/3
f 109/5/3 106/5/3 105/5/3
f 110/5/3 106/5/3 109/5/3
f 111/6/3 98/6/3 97/6/3
f 113/6/3 112/6/3 111/6/3
f 113/6/3 111/6/3 97/6/3
f 114/6/3 112/6/3 113/6/3
f 120/3/3 116/3/3 115/3/3
f 121/3/3 116/3/3 120/3/3
f 122/3/3 118/3/3 117/3/3
f 123/3/3 118/3/3 122/3/3
f 125/8/3 120/8/3 119/8/3
f 126/8/3 122/8/3 121/8/3
f 127/8/3 122/8/3 126/8/3
f 128/8/3 124/8/3 123/8/3
f 129/8/3 125/8/3 119/8/3
f 130/8/3 125/8/3 129/8/3
f 131/8/3 127/8/3 126/8/3
f 132/8/3 127/8/3 131/8/3
f 133/8/3 124/8/3 128/8/3
f 134/8/3 124/8/3 133/8/3
f 135/7/3 131/7/3 130/7/3
f 136/7/3 131/7/3 135/7/3
f 137/7/3 133/7/3 132/7/3
f 138/7/3 133/7/3 137/7/3
f 139/6/4 140/6/4 141/6/4
f 141/6/4 140/6/4 142/6/4
f 142/6/4 140/6/4 143/6/4
f 143/6/4 140/6/4 144/6/4
f 145/9/4 146/9/4 152/9/4
f 152/9/4 146/9/4 153/9/4
f 147/9/4 148/9/4 154/9/4
f 154/9/4 148/9/4 155/9/4
f 149/6/4 150/6/4 156/6/4
f 151/8/4 152/8/4 157/8/4
f 157/8/4 152/8/4 158/8/4
f 153/8/4 154/8/4 159/8/4
f 159/8/4 154/8/4 160/8/4
f 155/8/4 156/8/4 161/8/4
f 156/6/4 150/6/4 162/6/4
f 161/8/4 156/8/4 162/8/4
f 158/9/4 159/9/4 163/9/4
f 163/9/4 159/9/4 164/9/4
f 160/9/4 161/9/4 165/9/4
f 165/9/4 161/9/4 166/9/4
f 162/6/4 150/6/4 167/6/4
f 167/6/4 150/6/4 168/6/4
f 169/9/4 170/9/4 173/9/4
f 173/9/4 170/9/4 174/9/4
f 171/9/4 172/9/4 175/9/4
f 175/9/4 172/9/4 176/9/4
f 179/8/5 178/8/5 177/8/5
f 180/8/5 178/8/5 179/8/5
f 185/4/5 182/4/5 181/4/5
f 186/5/5 183/5/5 182/5/5
f 186/4/5 182/4/5 185/4/5
f 187/5/5 183/5/5 186/5/5
f 189/3/5 185/3/5 184/3/5
f 190/3/5 185/3/5 189/3/5
f 191/7/5 188/7/5 187/7/5
f 192/7/5 188/7/5 191/7/5
f 193/9/5 190/9/5 189/9/5
f 194/9/5 190/9/5 193/9/5
f 195/9/5 192/9/5 191/9/5
f 196/9/5 192/9/5 195/9/5
f 197/9/5 195/9/5 194/9/5
f 198/9/5 195/9/5 197/9/5
f 203/4/5 200/4/5 199/4/5
f 204/5/5 201/5/5 200/5/5
f 204/4/5 200/4/5 203/4/5
f 205/5/5 201/5/5 204/5/5
f 207/3/5 203/3/5 202/3/5
f 208/3/5 203/3/5 207/3/5
f 209/7/5 206/7/5 205/7/5
f 210/7/5 206/7/5 209/7/5
f 211/9/5 208/9/5 207/9/5
f 212/9/5 208/9/5 211/9/5
f 213/9/5 210/9/5 209/9/5
f 214/9/5 210/9/5 213/9/5
f 215/9/5 213/9/5 212/9/5
f 216/9/5 213/9/5 215/9/5
f 219/6/5 218/6/5 217/6/5
f 220/6/5 218/6/5 219/6/5
f 221/6/5 219/6/5 217/6/5
f 222/6/5 219/6/5 221/6/5
f 223/6/5 218/6/5 220/6/5
f 224/6/5 218/6/5 223/6/5
f 227/6/5 226/6/5 225/6/5
f 228/6/5 226/6/5 227/6/5
f 229/6/5 227/6/5 225/6/5
f 230/6/5 227/6/5 229/6/5
f 231/4/6 232/4/6 235/4/6
f 232/5/6 233/5/6 236/5/6
f 235/4/6 232/4/6 236/4/6
f 236/5/6 233/5/6 237/5/6
f 234/3/6 235/3/6 239/3/6
f 239/3/6 235/3/6 240/3/6
f 237/7/6 238/7/6 241/7/6
f 241/7/6 238/7/6 242/7/6
f 239/9/6 240/9/6 243/9/6
f 243/9/6 240/9/6 244/9/6
f 241/9/6 242/9/6 245/9/6
f 245/9/6 242/9/6 246/9/6
f 244/9/6 245/9/6 247/9/6
f 247/9/6 245/9/6 248/9/6
f 249/4/6 250/4/6 253/4/6
f 250/5/6 251/5/6 254/5/6
f 253/4/6 250/4/6 254/4/6
f 254/5/6 251/5/6 255/5/6
f 252/3/6 253/3/6 257/3/6
f 257/3/6 253/3/6 258/3/6
f 255/7/6 256/7/6 259/7/6
f 259/7/6 256/7/6 260/7/6
f 257/9/6 258/9/6 261/9/6
f 261/9/6 258/9/6 262/9/6
f 259/9/6 260/9/6 263/9/6
f 263/9/6 260/9/6 264/9/6
f 262/9/6 263/9/6 265/9/6
f 265/9/6 263/9/6 266/9/6
f 267/6/6 268/6/6 270/6/6
f 269/6/6 270/6/6 271/6/6
f 270/6/6 268/6/6 272/6/6
f 271/6/6 270/6/6 272/6/6
f 273/6/6 274/6/6 275/6/6
f 275/6/6 274/6/6 276/6/6
